<?xml version="1.0" encoding="utf-8"?>
<!-- Generator: Adobe Illustrator 16.0.0, SVG Export Plug-In . SVG Version: 6.00 Build 0)  -->
<!DOCTYPE svg PUBLIC "-//W3C//DTD SVG 1.1//EN" "http://www.w3.org/Graphics/SVG/1.1/DTD/svg11.dtd">
<svg version="1.1" id="Calque_1" xmlns="http://www.w3.org/2000/svg" xmlns:xlink="http://www.w3.org/1999/xlink" x="0px" y="0px"
	 width="10.323px" height="13.576px" viewBox="0 0 10.323 13.576" enable-background="new 0 0 10.323 13.576" xml:space="preserve">
<g>
	<defs>
		<rect id="SVGID_1_" width="10.323" height="13.576"/>
	</defs>
	<clipPath id="SVGID_2_">
		<use xlink:href="#SVGID_1_"  overflow="visible"/>
	</clipPath>
	<g clip-path="url(#SVGID_2_)">
		<linearGradient id="SVGID_3_" gradientUnits="userSpaceOnUse" x1="5.1807" y1="3.9556" x2="5.1807" y2="-0.0371">
			<stop  offset="0" style="stop-color:#E6332A"/>
			<stop  offset="1" style="stop-color:#F9B233"/>
		</linearGradient>
		<path fill="#FFFFFF" stroke="url(#SVGID_3_)" stroke-width="0.3" stroke-miterlimit="10" d="M9.895,3.706V3.413l0.146-0.146
			l0.146-0.932c-0.164-0.652-0.639-1.094-1.424-1.324L8.178,1.063L8.131,1.011L7.692,1.157L7.54,0.864L6.907,0.325L6.221,0.132
			L5.29,0.179L5.243,0.132L4.75,0.278l-0.047,0.1l-0.299-0.1L4.358,0.325L4.211,0.231c-0.426-0.133-0.785-0.133-1.078,0L3.086,0.179
			L2.594,0.425L2.155,0.964l-0.539,0.1L1.569,1.011C1.471,0.979,1.194,1.128,0.737,1.456L0.491,1.749L0.198,2.435l0.047,0.047
			c0,0,0.101,0.108,0.253,0.108c1.142,0,1.972,0.403,2.487,1.211l0.366,0.005"/>
		<linearGradient id="SVGID_4_" gradientUnits="userSpaceOnUse" x1="5.6523" y1="13.5806" x2="5.6523" y2="3.6558">
			<stop  offset="0" style="stop-color:#E6332A"/>
			<stop  offset="1" style="stop-color:#F9B233"/>
		</linearGradient>
		<path fill="none" stroke="url(#SVGID_4_)" stroke-width="0.3" stroke-miterlimit="10" d="M3.351,3.806c0,0,3.839,0,6.361,0
			c-0.081,5.94-4.394,6.671-4.394,6.671v2.303h2.766c0,0-0.569,0.651-2.929,0.651c-2.36,0-3.255-0.651-3.255-0.651h2.93v-1.464"/>
		<linearGradient id="SVGID_5_" gradientUnits="userSpaceOnUse" x1="7.5151" y1="4.688" x2="7.5151" y2="4.3882">
			<stop  offset="0" style="stop-color:#E6332A"/>
			<stop  offset="1" style="stop-color:#F9B233"/>
		</linearGradient>
		
			<line fill="none" stroke="url(#SVGID_5_)" stroke-width="0.3" stroke-miterlimit="10" x1="5.481" y1="4.538" x2="9.549" y2="4.538"/>
		<linearGradient id="SVGID_6_" gradientUnits="userSpaceOnUse" x1="7.1763" y1="7.5879" x2="8.7515" y2="7.5879">
			<stop  offset="0" style="stop-color:#E6332A"/>
			<stop  offset="1" style="stop-color:#F9B233"/>
		</linearGradient>
		<path fill="none" stroke="url(#SVGID_6_)" stroke-width="0.1" stroke-miterlimit="10" d="M8.704,6.317
			C8.369,7.493,7.797,8.293,7.21,8.835"/>
		<ellipse fill="#82368C" cx="8.188" cy="2.388" rx="0" ry="0.035"/>
		<rect x="6.469" y="1.969" fill="#82368C" width="0" height="0"/>
		<g>
			<linearGradient id="SVGID_7_" gradientUnits="userSpaceOnUse" x1="3.5591" y1="1.6699" x2="3.5591" y2="1.5791">
				<stop  offset="0" style="stop-color:#E6332A"/>
				<stop  offset="1" style="stop-color:#F9B233"/>
			</linearGradient>
			<circle fill="url(#SVGID_7_)" cx="3.559" cy="1.625" r="0.045"/>
			<linearGradient id="SVGID_8_" gradientUnits="userSpaceOnUse" x1="2.3706" y1="2.5742" x2="2.3706" y2="2.4834">
				<stop  offset="0" style="stop-color:#E6332A"/>
				<stop  offset="1" style="stop-color:#F9B233"/>
			</linearGradient>
			<circle fill="url(#SVGID_8_)" cx="2.371" cy="2.529" r="0.046"/>
			<linearGradient id="SVGID_9_" gradientUnits="userSpaceOnUse" x1="3.1157" y1="3.311" x2="3.1157" y2="3.1699">
				<stop  offset="0" style="stop-color:#E6332A"/>
				<stop  offset="1" style="stop-color:#F9B233"/>
			</linearGradient>
			<circle fill="url(#SVGID_9_)" cx="3.116" cy="3.241" r="0.07"/>
			<linearGradient id="SVGID_10_" gradientUnits="userSpaceOnUse" x1="3.5137" y1="3.2407" x2="3.5137" y2="3.0996">
				<stop  offset="0" style="stop-color:#E6332A"/>
				<stop  offset="1" style="stop-color:#F9B233"/>
			</linearGradient>
			<circle fill="url(#SVGID_10_)" cx="3.514" cy="3.17" r="0.071"/>
			<linearGradient id="SVGID_11_" gradientUnits="userSpaceOnUse" x1="3.8853" y1="2.6294" x2="3.8853" y2="2.4883">
				<stop  offset="0" style="stop-color:#E6332A"/>
				<stop  offset="1" style="stop-color:#F9B233"/>
			</linearGradient>
			<circle fill="url(#SVGID_11_)" cx="3.885" cy="2.559" r="0.07"/>
			<linearGradient id="SVGID_12_" gradientUnits="userSpaceOnUse" x1="3.9556" y1="3.1118" x2="3.9556" y2="2.9707">
				<stop  offset="0" style="stop-color:#E6332A"/>
				<stop  offset="1" style="stop-color:#F9B233"/>
			</linearGradient>
			<circle fill="url(#SVGID_12_)" cx="3.956" cy="3.042" r="0.07"/>
			<linearGradient id="SVGID_13_" gradientUnits="userSpaceOnUse" x1="1.4639" y1="1.8462" x2="1.4639" y2="1.7051">
				<stop  offset="0" style="stop-color:#E6332A"/>
				<stop  offset="1" style="stop-color:#F9B233"/>
			</linearGradient>
			<circle fill="url(#SVGID_13_)" cx="1.464" cy="1.776" r="0.071"/>
			<linearGradient id="SVGID_14_" gradientUnits="userSpaceOnUse" x1="5.0513" y1="3.4414" x2="5.0513" y2="3.3208">
				<stop  offset="0" style="stop-color:#E6332A"/>
				<stop  offset="1" style="stop-color:#F9B233"/>
			</linearGradient>
			<circle fill="url(#SVGID_14_)" cx="5.051" cy="3.381" r="0.061"/>
			<linearGradient id="SVGID_15_" gradientUnits="userSpaceOnUse" x1="3.4424" y1="2.6899" x2="3.4424" y2="2.5693">
				<stop  offset="0" style="stop-color:#E6332A"/>
				<stop  offset="1" style="stop-color:#F9B233"/>
			</linearGradient>
			<circle fill="url(#SVGID_15_)" cx="3.442" cy="2.629" r="0.06"/>
			<linearGradient id="SVGID_16_" gradientUnits="userSpaceOnUse" x1="5.481" y1="2.9961" x2="5.481" y2="2.8755">
				<stop  offset="0" style="stop-color:#E6332A"/>
				<stop  offset="1" style="stop-color:#F9B233"/>
			</linearGradient>
			<circle fill="url(#SVGID_16_)" cx="5.481" cy="2.936" r="0.061"/>
			<linearGradient id="SVGID_17_" gradientUnits="userSpaceOnUse" x1="7.4551" y1="1.4644" x2="7.4551" y2="1.3438">
				<stop  offset="0" style="stop-color:#E6332A"/>
				<stop  offset="1" style="stop-color:#F9B233"/>
			</linearGradient>
			<circle fill="url(#SVGID_17_)" cx="7.455" cy="1.404" r="0.06"/>
			<linearGradient id="SVGID_18_" gradientUnits="userSpaceOnUse" x1="7.0112" y1="1.7754" x2="7.0112" y2="1.5645">
				<stop  offset="0" style="stop-color:#E6332A"/>
				<stop  offset="1" style="stop-color:#F9B233"/>
			</linearGradient>
			<circle fill="url(#SVGID_18_)" cx="7.011" cy="1.67" r="0.105"/>
			<linearGradient id="SVGID_19_" gradientUnits="userSpaceOnUse" x1="2.4761" y1="1.4492" x2="2.4761" y2="1.2383">
				<stop  offset="0" style="stop-color:#E6332A"/>
				<stop  offset="1" style="stop-color:#F9B233"/>
			</linearGradient>
			<circle fill="url(#SVGID_19_)" cx="2.476" cy="1.344" r="0.105"/>
			<linearGradient id="SVGID_20_" gradientUnits="userSpaceOnUse" x1="2.9399" y1="2.0479" x2="2.9399" y2="1.8369">
				<stop  offset="0" style="stop-color:#E6332A"/>
				<stop  offset="1" style="stop-color:#F9B233"/>
			</linearGradient>
			<circle fill="url(#SVGID_20_)" cx="2.94" cy="1.942" r="0.105"/>
			<linearGradient id="SVGID_21_" gradientUnits="userSpaceOnUse" x1="9.3384" y1="2.1797" x2="9.3384" y2="1.9688">
				<stop  offset="0" style="stop-color:#E6332A"/>
				<stop  offset="1" style="stop-color:#F9B233"/>
			</linearGradient>
			<circle fill="url(#SVGID_21_)" cx="9.338" cy="2.074" r="0.105"/>
			<linearGradient id="SVGID_22_" gradientUnits="userSpaceOnUse" x1="9.02" y1="2.5288" x2="9.02" y2="2.3179">
				<stop  offset="0" style="stop-color:#E6332A"/>
				<stop  offset="1" style="stop-color:#F9B233"/>
			</linearGradient>
			<circle fill="url(#SVGID_22_)" cx="9.02" cy="2.423" r="0.105"/>
			<linearGradient id="SVGID_23_" gradientUnits="userSpaceOnUse" x1="8.2935" y1="2.77" x2="8.2935" y2="2.5591">
				<stop  offset="0" style="stop-color:#E6332A"/>
				<stop  offset="1" style="stop-color:#F9B233"/>
			</linearGradient>
			<circle fill="url(#SVGID_23_)" cx="8.293" cy="2.665" r="0.105"/>
			<linearGradient id="SVGID_24_" gradientUnits="userSpaceOnUse" x1="8.8091" y1="3.0415" x2="8.8091" y2="2.8306">
				<stop  offset="0" style="stop-color:#E6332A"/>
				<stop  offset="1" style="stop-color:#F9B233"/>
			</linearGradient>
			<circle fill="url(#SVGID_24_)" cx="8.809" cy="2.936" r="0.105"/>
			<linearGradient id="SVGID_25_" gradientUnits="userSpaceOnUse" x1="9.3384" y1="2.936" x2="9.3384" y2="2.7251">
				<stop  offset="0" style="stop-color:#E6332A"/>
				<stop  offset="1" style="stop-color:#F9B233"/>
			</linearGradient>
			<circle fill="url(#SVGID_25_)" cx="9.338" cy="2.831" r="0.105"/>
			<linearGradient id="SVGID_26_" gradientUnits="userSpaceOnUse" x1="6.9058" y1="3.4868" x2="6.9058" y2="3.2759">
				<stop  offset="0" style="stop-color:#E6332A"/>
				<stop  offset="1" style="stop-color:#F9B233"/>
			</linearGradient>
			<circle fill="url(#SVGID_26_)" cx="6.906" cy="3.381" r="0.105"/>
			<linearGradient id="SVGID_27_" gradientUnits="userSpaceOnUse" x1="3.1255" y1="2.9106" x2="3.1255" y2="2.7505">
				<stop  offset="0" style="stop-color:#E6332A"/>
				<stop  offset="1" style="stop-color:#F9B233"/>
			</linearGradient>
			<circle fill="url(#SVGID_27_)" cx="3.125" cy="2.831" r="0.08"/>
			<linearGradient id="SVGID_28_" gradientUnits="userSpaceOnUse" x1="4.5063" y1="3.3306" x2="4.5063" y2="3.1704">
				<stop  offset="0" style="stop-color:#E6332A"/>
				<stop  offset="1" style="stop-color:#F9B233"/>
			</linearGradient>
			<circle fill="url(#SVGID_28_)" cx="4.506" cy="3.25" r="0.08"/>
			<linearGradient id="SVGID_29_" gradientUnits="userSpaceOnUse" x1="6.4692" y1="3.2505" x2="6.4692" y2="3.0903">
				<stop  offset="0" style="stop-color:#E6332A"/>
				<stop  offset="1" style="stop-color:#F9B233"/>
			</linearGradient>
			<circle fill="url(#SVGID_29_)" cx="6.469" cy="3.17" r="0.08"/>
			<linearGradient id="SVGID_30_" gradientUnits="userSpaceOnUse" x1="6.6802" y1="2.0225" x2="6.6802" y2="1.8623">
				<stop  offset="0" style="stop-color:#E6332A"/>
				<stop  offset="1" style="stop-color:#F9B233"/>
			</linearGradient>
			<circle fill="url(#SVGID_30_)" cx="6.68" cy="1.942" r="0.08"/>
		</g>
	</g>
</g>
</svg>
