<?xml version="1.0" encoding="utf-8"?>
<!-- Generator: Adobe Illustrator 16.0.0, SVG Export Plug-In . SVG Version: 6.00 Build 0)  -->
<!DOCTYPE svg PUBLIC "-//W3C//DTD SVG 1.1//EN" "http://www.w3.org/Graphics/SVG/1.1/DTD/svg11.dtd">
<svg version="1.1" id="Calque_1" xmlns="http://www.w3.org/2000/svg" xmlns:xlink="http://www.w3.org/1999/xlink" x="0px" y="0px"
	 width="64.667px" height="17.833px" viewBox="0 0 64.667 17.833" enable-background="new 0 0 64.667 17.833" xml:space="preserve">
<g>
	<defs>
		<rect id="SVGID_1_" x="-5.743" y="-10.178" width="82" height="31"/>
	</defs>
	<clipPath id="SVGID_2_">
		<use xlink:href="#SVGID_1_"  overflow="visible"/>
	</clipPath>
	<g clip-path="url(#SVGID_2_)">
		<path fill="#82368C" d="M-178.178-28.972l0.861,0.252c-0.09,1.363-0.895,2.045-2.414,2.045c-1.969,0-2.953-0.982-2.953-2.947
			c0-0.953,0.262-1.734,0.785-2.344s1.193-0.914,2.01-0.914c1.707,0,2.561,1.102,2.561,3.305h-3.117c0,1.547,0.393,2.32,1.178,2.32
			c0.734,0,1.102-0.438,1.102-1.313C-178.166-28.685-178.17-28.82-178.178-28.972z M-180.451-30.238h1.277
			c0-1.375-0.207-2.063-0.621-2.063c-0.375,0-0.586,0.51-0.633,1.529L-180.451-30.238z"/>
		<path fill="#82368C" d="M-172.184-28.972l0.861,0.252c-0.09,1.363-0.895,2.045-2.414,2.045c-1.969,0-2.953-0.982-2.953-2.947
			c0-0.953,0.262-1.734,0.785-2.344s1.193-0.914,2.01-0.914c1.707,0,2.561,1.102,2.561,3.305h-3.117c0,1.547,0.393,2.32,1.178,2.32
			c0.734,0,1.102-0.438,1.102-1.313C-172.172-28.685-172.176-28.82-172.184-28.972z M-174.457-30.238h1.277
			c0-1.375-0.207-2.063-0.621-2.063c-0.375,0-0.586,0.51-0.633,1.529L-174.457-30.238z"/>
		<path fill="#82368C" d="M-166.172-30.572h-1.465c0.051-0.23,0.096-0.4,0.135-0.51c0.055-0.16,0.082-0.305,0.082-0.434
			c0-0.25-0.09-0.375-0.27-0.375c-0.137,0-0.268,0.165-0.393,0.495s-0.188,0.679-0.188,1.046v3.539h-2.139v-5.906l0.416,0.006
			c0.492,0,1.066-0.053,1.723-0.158v0.973c0.348-0.648,0.773-0.973,1.277-0.973c0.688,0,1.031,0.379,1.031,1.137
			c0,0.199-0.033,0.428-0.1,0.686C-166.084-30.941-166.121-30.783-166.172-30.572z"/>
		<path fill="#82368C" d="M-160.031-32.716l-1.219,1.529l1.758,4.377h-2.256l-1.025-2.602l-0.393,0.48v2.121h-2.139v-7.998
			c0.629,0,1.342-0.043,2.139-0.129v5.004l2.279-2.783H-160.031z"/>
		<path fill="#82368C" d="M-154.74-28.972l0.861,0.252c-0.09,1.363-0.895,2.045-2.414,2.045c-1.969,0-2.953-0.982-2.953-2.947
			c0-0.953,0.262-1.734,0.785-2.344s1.193-0.914,2.01-0.914c1.707,0,2.561,1.102,2.561,3.305h-3.117c0,1.547,0.393,2.32,1.178,2.32
			c0.734,0,1.102-0.438,1.102-1.313C-154.729-28.685-154.732-28.82-154.74-28.972z M-157.014-30.238h1.277
			c0-1.375-0.207-2.063-0.621-2.063c-0.375,0-0.586,0.51-0.633,1.529L-157.014-30.238z"/>
		<path fill="#82368C" d="M-148.746-28.972l0.861,0.252c-0.09,1.363-0.895,2.045-2.414,2.045c-1.969,0-2.953-0.982-2.953-2.947
			c0-0.953,0.262-1.734,0.785-2.344s1.193-0.914,2.01-0.914c1.707,0,2.561,1.102,2.561,3.305h-3.117c0,1.547,0.393,2.32,1.178,2.32
			c0.734,0,1.102-0.438,1.102-1.313C-148.734-28.685-148.738-28.82-148.746-28.972z M-151.02-30.238h1.277
			c0-1.375-0.207-2.063-0.621-2.063c-0.375,0-0.586,0.51-0.633,1.529L-151.02-30.238z"/>
		<path fill="#82368C" d="M-147-24.812v-7.898c0.605,0,1.318-0.051,2.139-0.152v0.891c0.402-0.598,0.891-0.896,1.465-0.896
			c0.613,0,1.104,0.28,1.471,0.841s0.551,1.312,0.551,2.253c0,2.082-0.693,3.123-2.08,3.123c-0.57,0-1.039-0.215-1.406-0.645v2.484
			H-147z M-144.176-32.007c-0.473,0-0.709,0.734-0.709,2.203c0,1.527,0.227,2.291,0.68,2.291c0.406,0,0.609-0.764,0.609-2.291
			C-143.596-31.273-143.789-32.007-144.176-32.007z"/>
		<path fill="#82368C" d="M-136.236-28.972l0.861,0.252c-0.09,1.363-0.895,2.045-2.414,2.045c-1.969,0-2.953-0.982-2.953-2.947
			c0-0.953,0.262-1.734,0.785-2.344s1.193-0.914,2.01-0.914c1.707,0,2.561,1.102,2.561,3.305h-3.117c0,1.547,0.393,2.32,1.178,2.32
			c0.734,0,1.102-0.438,1.102-1.313C-136.225-28.685-136.229-28.82-136.236-28.972z M-138.51-30.238h1.277
			c0-1.375-0.207-2.063-0.621-2.063c-0.375,0-0.586,0.51-0.633,1.529L-138.51-30.238z"/>
		<path fill="#82368C" d="M-130.225-30.572h-1.465c0.051-0.23,0.096-0.4,0.135-0.51c0.055-0.16,0.082-0.305,0.082-0.434
			c0-0.25-0.09-0.375-0.27-0.375c-0.137,0-0.268,0.165-0.393,0.495s-0.188,0.679-0.188,1.046v3.539h-2.139v-5.906l0.416,0.006
			c0.492,0,1.066-0.053,1.723-0.158v0.973c0.348-0.648,0.773-0.973,1.277-0.973c0.688,0,1.031,0.379,1.031,1.137
			c0,0.199-0.033,0.428-0.1,0.686C-130.137-30.941-130.174-30.783-130.225-30.572z"/>
	</g>
	<linearGradient id="SVGID_3_" gradientUnits="userSpaceOnUse" x1="-85.8403" y1="-44.6069" x2="-85.8403" y2="-49.3105">
		<stop  offset="0" style="stop-color:#E6332A"/>
		<stop  offset="1" style="stop-color:#F9B233"/>
	</linearGradient>
	<path clip-path="url(#SVGID_2_)" fill="url(#SVGID_3_)" d="M-85.48-47.079l0.312-1.044c-0.232-0.128-0.348-0.308-0.348-0.54
		c0-0.176,0.074-0.328,0.222-0.456c0.148-0.128,0.322-0.192,0.522-0.192c0.208,0,0.384,0.064,0.528,0.192s0.216,0.28,0.216,0.456
		s-0.072,0.326-0.216,0.45c-0.144,0.125-0.32,0.186-0.528,0.186l0.432,0.948l0.972-1.104c-0.136-0.128-0.204-0.284-0.204-0.468
		c0-0.168,0.064-0.31,0.192-0.426c0.128-0.116,0.284-0.174,0.468-0.174c0.176,0,0.328,0.058,0.456,0.174
		c0.128,0.116,0.192,0.258,0.192,0.426s-0.064,0.312-0.192,0.432s-0.28,0.18-0.456,0.18l-0.216,2.208
		c-0.224-0.04-0.497-0.06-0.816-0.06c-0.6,0-1.296,0.064-2.088,0.192c-0.728,0.112-1.34,0.24-1.836,0.384l-0.828-2.208
		c-0.2,0-0.37-0.05-0.51-0.15c-0.14-0.1-0.21-0.218-0.21-0.354c0-0.136,0.072-0.254,0.216-0.354c0.144-0.1,0.32-0.15,0.528-0.15
		c0.2,0,0.375,0.05,0.522,0.15c0.148,0.1,0.222,0.218,0.222,0.354c0,0.184-0.116,0.324-0.348,0.42l0.936,0.768l0.612-1.2
		c-0.2,0-0.376-0.058-0.528-0.174c-0.152-0.116-0.228-0.25-0.228-0.402c0-0.144,0.074-0.27,0.222-0.378s0.326-0.162,0.534-0.162
		c0.216,0,0.398,0.054,0.546,0.162s0.222,0.234,0.222,0.378c0,0.168-0.096,0.308-0.288,0.42l0.732,0.984L-85.48-47.079z
		 M-82.804-45.399c0,0.088-0.098,0.172-0.294,0.252c-0.196,0.08-0.442,0.136-0.738,0.168l-3.372,0.36
		c-0.128,0.008-0.252,0.012-0.372,0.012c-0.48,0-0.72-0.072-0.72-0.216c0-0.088,0.098-0.172,0.294-0.252
		c0.196-0.08,0.438-0.136,0.726-0.168l3.384-0.36c0.128-0.008,0.248-0.012,0.36-0.012C-83.048-45.615-82.804-45.542-82.804-45.399z"
		/>
	<linearGradient id="SVGID_4_" gradientUnits="userSpaceOnUse" x1="-84.5864" y1="-35.9531" x2="-84.5864" y2="-43.9512">
		<stop  offset="0" style="stop-color:#E6332A"/>
		<stop  offset="1" style="stop-color:#F9B233"/>
	</linearGradient>
	<path clip-path="url(#SVGID_2_)" fill="url(#SVGID_4_)" d="M-87.909-35.953v-7.998h3.557c1.832,0,2.748,0.654,2.748,1.963
		c0,0.93-0.553,1.525-1.658,1.787c1.332,0.266,1.998,0.973,1.998,2.121c0,1.418-0.896,2.127-2.689,2.127H-87.909z M-85.588-40.471
		h0.715c0.66,0,0.99-0.488,0.99-1.465c0-0.902-0.35-1.354-1.049-1.354h-0.656V-40.471z M-85.588-36.615h0.662
		c0.867,0,1.301-0.496,1.301-1.488c0-1.137-0.447-1.705-1.342-1.705h-0.621V-36.615z"/>
	<linearGradient id="SVGID_5_" gradientUnits="userSpaceOnUse" x1="-78.0591" y1="-35.8184" x2="-78.0591" y2="-42.0234">
		<stop  offset="0" style="stop-color:#E6332A"/>
		<stop  offset="1" style="stop-color:#F9B233"/>
	</linearGradient>
	<path clip-path="url(#SVGID_2_)" fill="url(#SVGID_5_)" d="M-76.237-38.115l0.861,0.252c-0.09,1.363-0.895,2.045-2.414,2.045
		c-1.969,0-2.953-0.982-2.953-2.947c0-0.953,0.262-1.734,0.785-2.344s1.193-0.914,2.01-0.914c1.707,0,2.561,1.102,2.561,3.305
		h-3.117c0,1.547,0.393,2.32,1.178,2.32c0.734,0,1.102-0.438,1.102-1.313C-76.225-37.828-76.229-37.963-76.237-38.115z
		 M-78.51-39.381h1.277c0-1.375-0.207-2.063-0.621-2.063c-0.375,0-0.586,0.51-0.633,1.529L-78.51-39.381z"/>
	<linearGradient id="SVGID_6_" gradientUnits="userSpaceOnUse" x1="-72.0649" y1="-35.8184" x2="-72.0649" y2="-42.0234">
		<stop  offset="0" style="stop-color:#E6332A"/>
		<stop  offset="1" style="stop-color:#F9B233"/>
	</linearGradient>
	<path clip-path="url(#SVGID_2_)" fill="url(#SVGID_6_)" d="M-70.243-38.115l0.861,0.252c-0.09,1.363-0.895,2.045-2.414,2.045
		c-1.969,0-2.953-0.982-2.953-2.947c0-0.953,0.262-1.734,0.785-2.344s1.193-0.914,2.01-0.914c1.707,0,2.561,1.102,2.561,3.305
		h-3.117c0,1.547,0.393,2.32,1.178,2.32c0.734,0,1.102-0.438,1.102-1.313C-70.231-37.828-70.235-37.963-70.243-38.115z
		 M-72.516-39.381h1.277c0-1.375-0.207-2.063-0.621-2.063c-0.375,0-0.586,0.51-0.633,1.529L-72.516-39.381z"/>
	<linearGradient id="SVGID_7_" gradientUnits="userSpaceOnUse" x1="-66.2437" y1="-35.9531" x2="-66.2437" y2="-42.0117">
		<stop  offset="0" style="stop-color:#E6332A"/>
		<stop  offset="1" style="stop-color:#F9B233"/>
	</linearGradient>
	<path clip-path="url(#SVGID_2_)" fill="url(#SVGID_7_)" d="M-64.231-39.715h-1.465c0.051-0.23,0.096-0.4,0.135-0.51
		c0.055-0.16,0.082-0.305,0.082-0.434c0-0.25-0.09-0.375-0.27-0.375c-0.137,0-0.268,0.165-0.393,0.495s-0.188,0.679-0.188,1.046
		v3.539h-2.139v-5.906l0.416,0.006c0.492,0,1.066-0.053,1.723-0.158v0.973c0.348-0.648,0.773-0.973,1.277-0.973
		c0.688,0,1.031,0.379,1.031,1.137c0,0.199-0.033,0.428-0.1,0.686C-64.143-40.084-64.18-39.926-64.231-39.715z"/>
	<linearGradient id="SVGID_8_" gradientUnits="userSpaceOnUse" x1="-60.4575" y1="-35.9531" x2="-60.4575" y2="-44.0801">
		<stop  offset="0" style="stop-color:#E6332A"/>
		<stop  offset="1" style="stop-color:#F9B233"/>
	</linearGradient>
	<path clip-path="url(#SVGID_2_)" fill="url(#SVGID_8_)" d="M-58.09-41.859l-1.219,1.529l1.758,4.377h-2.256l-1.025-2.602
		l-0.393,0.48v2.121h-2.139v-7.998c0.629,0,1.342-0.043,2.139-0.129v5.004l2.279-2.783H-58.09z"/>
	<linearGradient id="SVGID_9_" gradientUnits="userSpaceOnUse" x1="-54.6216" y1="-35.8184" x2="-54.6216" y2="-42.0234">
		<stop  offset="0" style="stop-color:#E6332A"/>
		<stop  offset="1" style="stop-color:#F9B233"/>
	</linearGradient>
	<path clip-path="url(#SVGID_2_)" fill="url(#SVGID_9_)" d="M-52.799-38.115l0.861,0.252c-0.09,1.363-0.895,2.045-2.414,2.045
		c-1.969,0-2.953-0.982-2.953-2.947c0-0.953,0.262-1.734,0.785-2.344s1.193-0.914,2.01-0.914c1.707,0,2.561,1.102,2.561,3.305
		h-3.117c0,1.547,0.393,2.32,1.178,2.32c0.734,0,1.102-0.438,1.102-1.313C-52.788-37.828-52.792-37.963-52.799-38.115z
		 M-55.073-39.381h1.277c0-1.375-0.207-2.063-0.621-2.063c-0.375,0-0.586,0.51-0.633,1.529L-55.073-39.381z"/>
	<linearGradient id="SVGID_10_" gradientUnits="userSpaceOnUse" x1="-48.6274" y1="-35.8184" x2="-48.6274" y2="-42.0234">
		<stop  offset="0" style="stop-color:#E6332A"/>
		<stop  offset="1" style="stop-color:#F9B233"/>
	</linearGradient>
	<path clip-path="url(#SVGID_2_)" fill="url(#SVGID_10_)" d="M-46.805-38.115l0.861,0.252c-0.09,1.363-0.895,2.045-2.414,2.045
		c-1.969,0-2.953-0.982-2.953-2.947c0-0.953,0.262-1.734,0.785-2.344s1.193-0.914,2.01-0.914c1.707,0,2.561,1.102,2.561,3.305
		h-3.117c0,1.547,0.393,2.32,1.178,2.32c0.734,0,1.102-0.438,1.102-1.313C-46.793-37.828-46.797-37.963-46.805-38.115z
		 M-49.079-39.381h1.277c0-1.375-0.207-2.063-0.621-2.063c-0.375,0-0.586,0.51-0.633,1.529L-49.079-39.381z"/>
	<linearGradient id="SVGID_11_" gradientUnits="userSpaceOnUse" x1="-36.1177" y1="-35.8184" x2="-36.1177" y2="-42.0234">
		<stop  offset="0" style="stop-color:#E6332A"/>
		<stop  offset="1" style="stop-color:#F9B233"/>
	</linearGradient>
	<path clip-path="url(#SVGID_2_)" fill="url(#SVGID_11_)" d="M-34.295-38.115l0.861,0.252c-0.09,1.363-0.895,2.045-2.414,2.045
		c-1.969,0-2.953-0.982-2.953-2.947c0-0.953,0.262-1.734,0.785-2.344s1.193-0.914,2.01-0.914c1.707,0,2.561,1.102,2.561,3.305
		h-3.117c0,1.547,0.393,2.32,1.178,2.32c0.734,0,1.102-0.438,1.102-1.313C-34.284-37.828-34.288-37.963-34.295-38.115z
		 M-36.569-39.381h1.277c0-1.375-0.207-2.063-0.621-2.063c-0.375,0-0.586,0.51-0.633,1.529L-36.569-39.381z"/>
	<linearGradient id="SVGID_12_" gradientUnits="userSpaceOnUse" x1="-30.2964" y1="-35.9531" x2="-30.2964" y2="-42.0117">
		<stop  offset="0" style="stop-color:#E6332A"/>
		<stop  offset="1" style="stop-color:#F9B233"/>
	</linearGradient>
	<path clip-path="url(#SVGID_2_)" fill="url(#SVGID_12_)" d="M-28.284-39.715h-1.465c0.051-0.23,0.096-0.4,0.135-0.51
		c0.055-0.16,0.082-0.305,0.082-0.434c0-0.25-0.09-0.375-0.27-0.375c-0.137,0-0.268,0.165-0.393,0.495s-0.188,0.679-0.188,1.046
		v3.539h-2.139v-5.906l0.416,0.006c0.492,0,1.066-0.053,1.723-0.158v0.973c0.348-0.648,0.773-0.973,1.277-0.973
		c0.688,0,1.031,0.379,1.031,1.137c0,0.199-0.033,0.428-0.1,0.686C-28.196-40.084-28.233-39.926-28.284-39.715z"/>
	<linearGradient id="SVGID_13_" gradientUnits="userSpaceOnUse" x1="-43.8091" y1="-41.3438" x2="-43.8091" y2="-45.3364">
		<stop  offset="0" style="stop-color:#E6332A"/>
		<stop  offset="1" style="stop-color:#F9B233"/>
	</linearGradient>
	<path clip-path="url(#SVGID_2_)" fill="#FFFFFF" stroke="url(#SVGID_13_)" stroke-width="0.3" stroke-miterlimit="10" d="
		M-39.094-41.593v-0.293l0.146-0.146l0.146-0.932c-0.164-0.652-0.639-1.094-1.424-1.324l-0.586,0.053l-0.047-0.053l-0.439,0.146
		l-0.152-0.293l-0.633-0.539l-0.686-0.193l-0.932,0.047l-0.047-0.047l-0.492,0.146l-0.047,0.1l-0.299-0.1l-0.047,0.047l-0.146-0.094
		c-0.426-0.133-0.785-0.133-1.078,0l-0.047-0.053l-0.492,0.246l-0.439,0.539l-0.539,0.1l-0.047-0.053
		c-0.098-0.031-0.375,0.117-0.832,0.445l-0.246,0.293l-0.293,0.686l0.047,0.047c0,0,0.101,0.108,0.253,0.108
		c1.142,0,1.971,0.403,2.488,1.211l0.366,0.005"/>
	<linearGradient id="SVGID_14_" gradientUnits="userSpaceOnUse" x1="-43.3374" y1="-31.7188" x2="-43.3374" y2="-41.6436">
		<stop  offset="0" style="stop-color:#E6332A"/>
		<stop  offset="1" style="stop-color:#F9B233"/>
	</linearGradient>
	<path clip-path="url(#SVGID_2_)" fill="none" stroke="url(#SVGID_14_)" stroke-width="0.3" stroke-miterlimit="10" d="
		M-45.638-41.494c0,0,3.838,0,6.361,0c-0.082,5.94-4.394,6.671-4.394,6.671v2.303h2.767c0,0-0.57,0.651-2.929,0.651
		c-2.36,0-3.255-0.651-3.255-0.651h2.929v-1.464"/>
	<linearGradient id="SVGID_15_" gradientUnits="userSpaceOnUse" x1="-41.4741" y1="-40.6113" x2="-41.4741" y2="-40.9111">
		<stop  offset="0" style="stop-color:#E6332A"/>
		<stop  offset="1" style="stop-color:#F9B233"/>
	</linearGradient>
	
		<line clip-path="url(#SVGID_2_)" fill="none" stroke="url(#SVGID_15_)" stroke-width="0.3" stroke-miterlimit="10" x1="-43.508" y1="-40.761" x2="-39.44" y2="-40.761"/>
	<linearGradient id="SVGID_16_" gradientUnits="userSpaceOnUse" x1="-41.813" y1="-37.7119" x2="-40.2383" y2="-37.7119">
		<stop  offset="0" style="stop-color:#E6332A"/>
		<stop  offset="1" style="stop-color:#F9B233"/>
	</linearGradient>
	<path clip-path="url(#SVGID_2_)" fill="none" stroke="url(#SVGID_16_)" stroke-width="0.1" stroke-miterlimit="10" d="
		M-40.286-38.982c-0.334,1.176-0.906,1.976-1.493,2.519"/>
	<ellipse clip-path="url(#SVGID_2_)" fill="#82368C" cx="-40.802" cy="-42.911" rx="0" ry="0.035"/>
	<rect x="-42.521" y="-43.331" clip-path="url(#SVGID_2_)" fill="#82368C" width="0" height="0"/>
	<g clip-path="url(#SVGID_2_)">
		<linearGradient id="SVGID_17_" gradientUnits="userSpaceOnUse" x1="-45.4302" y1="-43.6294" x2="-45.4302" y2="-43.7202">
			<stop  offset="0" style="stop-color:#E6332A"/>
			<stop  offset="1" style="stop-color:#F9B233"/>
		</linearGradient>
		<circle fill="url(#SVGID_17_)" cx="-45.43" cy="-43.675" r="0.045"/>
		<linearGradient id="SVGID_18_" gradientUnits="userSpaceOnUse" x1="-46.6187" y1="-42.7251" x2="-46.6187" y2="-42.8159">
			<stop  offset="0" style="stop-color:#E6332A"/>
			<stop  offset="1" style="stop-color:#F9B233"/>
		</linearGradient>
		<circle fill="url(#SVGID_18_)" cx="-46.619" cy="-42.771" r="0.045"/>
		<linearGradient id="SVGID_19_" gradientUnits="userSpaceOnUse" x1="-45.8735" y1="-41.9883" x2="-45.8735" y2="-42.1294">
			<stop  offset="0" style="stop-color:#E6332A"/>
			<stop  offset="1" style="stop-color:#F9B233"/>
		</linearGradient>
		<circle fill="url(#SVGID_19_)" cx="-45.874" cy="-42.059" r="0.071"/>
		<linearGradient id="SVGID_20_" gradientUnits="userSpaceOnUse" x1="-45.4761" y1="-42.0586" x2="-45.4761" y2="-42.1997">
			<stop  offset="0" style="stop-color:#E6332A"/>
			<stop  offset="1" style="stop-color:#F9B233"/>
		</linearGradient>
		<circle fill="url(#SVGID_20_)" cx="-45.476" cy="-42.129" r="0.071"/>
		<linearGradient id="SVGID_21_" gradientUnits="userSpaceOnUse" x1="-45.104" y1="-42.6699" x2="-45.104" y2="-42.811">
			<stop  offset="0" style="stop-color:#E6332A"/>
			<stop  offset="1" style="stop-color:#F9B233"/>
		</linearGradient>
		<circle fill="url(#SVGID_21_)" cx="-45.104" cy="-42.74" r="0.071"/>
		<linearGradient id="SVGID_22_" gradientUnits="userSpaceOnUse" x1="-45.0337" y1="-42.1875" x2="-45.0337" y2="-42.3286">
			<stop  offset="0" style="stop-color:#E6332A"/>
			<stop  offset="1" style="stop-color:#F9B233"/>
		</linearGradient>
		<circle fill="url(#SVGID_22_)" cx="-45.033" cy="-42.258" r="0.071"/>
		<linearGradient id="SVGID_23_" gradientUnits="userSpaceOnUse" x1="-47.5249" y1="-43.4531" x2="-47.5249" y2="-43.5942">
			<stop  offset="0" style="stop-color:#E6332A"/>
			<stop  offset="1" style="stop-color:#F9B233"/>
		</linearGradient>
		<circle fill="url(#SVGID_23_)" cx="-47.525" cy="-43.523" r="0.071"/>
		<linearGradient id="SVGID_24_" gradientUnits="userSpaceOnUse" x1="-43.938" y1="-41.8579" x2="-43.938" y2="-41.9785">
			<stop  offset="0" style="stop-color:#E6332A"/>
			<stop  offset="1" style="stop-color:#F9B233"/>
		</linearGradient>
		<circle fill="url(#SVGID_24_)" cx="-43.938" cy="-41.918" r="0.06"/>
		<linearGradient id="SVGID_25_" gradientUnits="userSpaceOnUse" x1="-45.5464" y1="-42.6094" x2="-45.5464" y2="-42.73">
			<stop  offset="0" style="stop-color:#E6332A"/>
			<stop  offset="1" style="stop-color:#F9B233"/>
		</linearGradient>
		<circle fill="url(#SVGID_25_)" cx="-45.547" cy="-42.67" r="0.06"/>
		<linearGradient id="SVGID_26_" gradientUnits="userSpaceOnUse" x1="-43.5083" y1="-42.3032" x2="-43.5083" y2="-42.4238">
			<stop  offset="0" style="stop-color:#E6332A"/>
			<stop  offset="1" style="stop-color:#F9B233"/>
		</linearGradient>
		<circle fill="url(#SVGID_26_)" cx="-43.508" cy="-42.364" r="0.06"/>
		<linearGradient id="SVGID_27_" gradientUnits="userSpaceOnUse" x1="-41.5347" y1="-43.835" x2="-41.5347" y2="-43.9556">
			<stop  offset="0" style="stop-color:#E6332A"/>
			<stop  offset="1" style="stop-color:#F9B233"/>
		</linearGradient>
		<circle fill="url(#SVGID_27_)" cx="-41.534" cy="-43.896" r="0.06"/>
		<linearGradient id="SVGID_28_" gradientUnits="userSpaceOnUse" x1="-41.978" y1="-43.5239" x2="-41.978" y2="-43.7349">
			<stop  offset="0" style="stop-color:#E6332A"/>
			<stop  offset="1" style="stop-color:#F9B233"/>
		</linearGradient>
		<circle fill="url(#SVGID_28_)" cx="-41.978" cy="-43.629" r="0.105"/>
		<linearGradient id="SVGID_29_" gradientUnits="userSpaceOnUse" x1="-46.5132" y1="-43.8501" x2="-46.5132" y2="-44.061">
			<stop  offset="0" style="stop-color:#E6332A"/>
			<stop  offset="1" style="stop-color:#F9B233"/>
		</linearGradient>
		<circle fill="url(#SVGID_29_)" cx="-46.513" cy="-43.956" r="0.105"/>
		<linearGradient id="SVGID_30_" gradientUnits="userSpaceOnUse" x1="-46.0498" y1="-43.2515" x2="-46.0498" y2="-43.4624">
			<stop  offset="0" style="stop-color:#E6332A"/>
			<stop  offset="1" style="stop-color:#F9B233"/>
		</linearGradient>
		<circle fill="url(#SVGID_30_)" cx="-46.05" cy="-43.357" r="0.105"/>
		<linearGradient id="SVGID_31_" gradientUnits="userSpaceOnUse" x1="-39.6509" y1="-43.1196" x2="-39.6509" y2="-43.3306">
			<stop  offset="0" style="stop-color:#E6332A"/>
			<stop  offset="1" style="stop-color:#F9B233"/>
		</linearGradient>
		<circle fill="url(#SVGID_31_)" cx="-39.651" cy="-43.225" r="0.105"/>
		<linearGradient id="SVGID_32_" gradientUnits="userSpaceOnUse" x1="-39.9697" y1="-42.7705" x2="-39.9697" y2="-42.9814">
			<stop  offset="0" style="stop-color:#E6332A"/>
			<stop  offset="1" style="stop-color:#F9B233"/>
		</linearGradient>
		<circle fill="url(#SVGID_32_)" cx="-39.97" cy="-42.876" r="0.105"/>
		<linearGradient id="SVGID_33_" gradientUnits="userSpaceOnUse" x1="-40.6963" y1="-42.5293" x2="-40.6963" y2="-42.7402">
			<stop  offset="0" style="stop-color:#E6332A"/>
			<stop  offset="1" style="stop-color:#F9B233"/>
		</linearGradient>
		<circle fill="url(#SVGID_33_)" cx="-40.696" cy="-42.635" r="0.105"/>
		<linearGradient id="SVGID_34_" gradientUnits="userSpaceOnUse" x1="-40.1807" y1="-42.2578" x2="-40.1807" y2="-42.4688">
			<stop  offset="0" style="stop-color:#E6332A"/>
			<stop  offset="1" style="stop-color:#F9B233"/>
		</linearGradient>
		<circle fill="url(#SVGID_34_)" cx="-40.181" cy="-42.363" r="0.105"/>
		<linearGradient id="SVGID_35_" gradientUnits="userSpaceOnUse" x1="-39.6509" y1="-42.3633" x2="-39.6509" y2="-42.5742">
			<stop  offset="0" style="stop-color:#E6332A"/>
			<stop  offset="1" style="stop-color:#F9B233"/>
		</linearGradient>
		<circle fill="url(#SVGID_35_)" cx="-39.651" cy="-42.469" r="0.105"/>
		<linearGradient id="SVGID_36_" gradientUnits="userSpaceOnUse" x1="-42.0835" y1="-41.8125" x2="-42.0835" y2="-42.0234">
			<stop  offset="0" style="stop-color:#E6332A"/>
			<stop  offset="1" style="stop-color:#F9B233"/>
		</linearGradient>
		<circle fill="url(#SVGID_36_)" cx="-42.083" cy="-41.918" r="0.105"/>
		<linearGradient id="SVGID_37_" gradientUnits="userSpaceOnUse" x1="-45.8638" y1="-42.3887" x2="-45.8638" y2="-42.5488">
			<stop  offset="0" style="stop-color:#E6332A"/>
			<stop  offset="1" style="stop-color:#F9B233"/>
		</linearGradient>
		<circle fill="url(#SVGID_37_)" cx="-45.864" cy="-42.469" r="0.08"/>
		<linearGradient id="SVGID_38_" gradientUnits="userSpaceOnUse" x1="-44.4834" y1="-41.9688" x2="-44.4834" y2="-42.1289">
			<stop  offset="0" style="stop-color:#E6332A"/>
			<stop  offset="1" style="stop-color:#F9B233"/>
		</linearGradient>
		<circle fill="url(#SVGID_38_)" cx="-44.483" cy="-42.049" r="0.08"/>
		<linearGradient id="SVGID_39_" gradientUnits="userSpaceOnUse" x1="-42.5205" y1="-42.0488" x2="-42.5205" y2="-42.209">
			<stop  offset="0" style="stop-color:#E6332A"/>
			<stop  offset="1" style="stop-color:#F9B233"/>
		</linearGradient>
		<circle fill="url(#SVGID_39_)" cx="-42.521" cy="-42.129" r="0.08"/>
		<linearGradient id="SVGID_40_" gradientUnits="userSpaceOnUse" x1="-42.3096" y1="-43.2769" x2="-42.3096" y2="-43.437">
			<stop  offset="0" style="stop-color:#E6332A"/>
			<stop  offset="1" style="stop-color:#F9B233"/>
		</linearGradient>
		<circle fill="url(#SVGID_40_)" cx="-42.31" cy="-43.357" r="0.08"/>
	</g>
	<linearGradient id="SVGID_41_" gradientUnits="userSpaceOnUse" x1="6.8711" y1="12.6455" x2="6.8711" y2="4.6475">
		<stop  offset="0" style="stop-color:#E6332A"/>
		<stop  offset="1" style="stop-color:#F9B233"/>
	</linearGradient>
	<path clip-path="url(#SVGID_2_)" fill="url(#SVGID_41_)" d="M3.549,12.646V4.647h3.557c1.832,0,2.748,0.654,2.748,1.963
		c0,0.93-0.553,1.525-1.658,1.787c1.332,0.266,1.998,0.973,1.998,2.121c0,1.418-0.896,2.127-2.689,2.127H3.549z M5.869,8.128h0.715
		c0.66,0,0.99-0.488,0.99-1.465c0-0.902-0.35-1.354-1.049-1.354H5.869V8.128z M5.869,11.983h0.662c0.867,0,1.301-0.496,1.301-1.488
		c0-1.137-0.447-1.705-1.342-1.705H5.869V11.983z"/>
	<linearGradient id="SVGID_42_" gradientUnits="userSpaceOnUse" x1="13.3984" y1="12.7803" x2="13.3984" y2="6.5752">
		<stop  offset="0" style="stop-color:#E6332A"/>
		<stop  offset="1" style="stop-color:#F9B233"/>
	</linearGradient>
	<path clip-path="url(#SVGID_2_)" fill="url(#SVGID_42_)" d="M15.221,10.483l0.861,0.252c-0.09,1.363-0.895,2.045-2.414,2.045
		c-1.969,0-2.953-0.982-2.953-2.947c0-0.953,0.262-1.734,0.785-2.344s1.193-0.914,2.01-0.914c1.707,0,2.561,1.102,2.561,3.305
		h-3.117c0,1.547,0.393,2.32,1.178,2.32c0.734,0,1.102-0.438,1.102-1.313C15.232,10.771,15.229,10.636,15.221,10.483z M12.947,9.218
		h1.277c0-1.375-0.207-2.063-0.621-2.063c-0.375,0-0.586,0.51-0.633,1.529L12.947,9.218z"/>
	<linearGradient id="SVGID_43_" gradientUnits="userSpaceOnUse" x1="19.3931" y1="12.7803" x2="19.3931" y2="6.5752">
		<stop  offset="0" style="stop-color:#E6332A"/>
		<stop  offset="1" style="stop-color:#F9B233"/>
	</linearGradient>
	<path clip-path="url(#SVGID_2_)" fill="url(#SVGID_43_)" d="M21.215,10.483l0.861,0.252c-0.09,1.363-0.895,2.045-2.414,2.045
		c-1.969,0-2.953-0.982-2.953-2.947c0-0.953,0.262-1.734,0.785-2.344s1.193-0.914,2.01-0.914c1.707,0,2.561,1.102,2.561,3.305
		h-3.117c0,1.547,0.393,2.32,1.178,2.32c0.734,0,1.102-0.438,1.102-1.313C21.227,10.771,21.223,10.636,21.215,10.483z M18.941,9.218
		h1.277c0-1.375-0.207-2.063-0.621-2.063c-0.375,0-0.586,0.51-0.633,1.529L18.941,9.218z"/>
	<linearGradient id="SVGID_44_" gradientUnits="userSpaceOnUse" x1="25.2139" y1="12.6455" x2="25.2139" y2="6.5869">
		<stop  offset="0" style="stop-color:#E6332A"/>
		<stop  offset="1" style="stop-color:#F9B233"/>
	</linearGradient>
	<path clip-path="url(#SVGID_2_)" fill="url(#SVGID_44_)" d="M27.227,8.884h-1.465c0.051-0.23,0.096-0.4,0.135-0.51
		c0.055-0.16,0.082-0.305,0.082-0.434c0-0.25-0.09-0.375-0.27-0.375c-0.137,0-0.268,0.165-0.393,0.495s-0.188,0.679-0.188,1.046
		v3.539H22.99V6.739l0.416,0.006c0.492,0,1.066-0.053,1.723-0.158V7.56c0.348-0.648,0.773-0.973,1.277-0.973
		c0.688,0,1.031,0.379,1.031,1.137c0,0.199-0.033,0.428-0.1,0.686C27.314,8.515,27.277,8.673,27.227,8.884z"/>
	<linearGradient id="SVGID_45_" gradientUnits="userSpaceOnUse" x1="31" y1="12.6455" x2="31" y2="4.5186">
		<stop  offset="0" style="stop-color:#E6332A"/>
		<stop  offset="1" style="stop-color:#F9B233"/>
	</linearGradient>
	<path clip-path="url(#SVGID_2_)" fill="url(#SVGID_45_)" d="M33.367,6.739l-1.219,1.529l1.758,4.377H31.65l-1.025-2.602
		l-0.393,0.48v2.121h-2.139V4.647c0.629,0,1.342-0.043,2.139-0.129v5.004l2.279-2.783H33.367z"/>
	<linearGradient id="SVGID_46_" gradientUnits="userSpaceOnUse" x1="36.8359" y1="12.7803" x2="36.8359" y2="6.5752">
		<stop  offset="0" style="stop-color:#E6332A"/>
		<stop  offset="1" style="stop-color:#F9B233"/>
	</linearGradient>
	<path clip-path="url(#SVGID_2_)" fill="url(#SVGID_46_)" d="M38.658,10.483l0.861,0.252c-0.09,1.363-0.895,2.045-2.414,2.045
		c-1.969,0-2.953-0.982-2.953-2.947c0-0.953,0.262-1.734,0.785-2.344s1.193-0.914,2.01-0.914c1.707,0,2.561,1.102,2.561,3.305
		h-3.117c0,1.547,0.393,2.32,1.178,2.32c0.734,0,1.102-0.438,1.102-1.313C38.67,10.771,38.666,10.636,38.658,10.483z M36.385,9.218
		h1.277c0-1.375-0.207-2.063-0.621-2.063c-0.375,0-0.586,0.51-0.633,1.529L36.385,9.218z"/>
	<linearGradient id="SVGID_47_" gradientUnits="userSpaceOnUse" x1="42.8301" y1="12.7803" x2="42.8301" y2="6.5752">
		<stop  offset="0" style="stop-color:#E6332A"/>
		<stop  offset="1" style="stop-color:#F9B233"/>
	</linearGradient>
	<path clip-path="url(#SVGID_2_)" fill="url(#SVGID_47_)" d="M44.652,10.483l0.861,0.252c-0.09,1.363-0.895,2.045-2.414,2.045
		c-1.969,0-2.953-0.982-2.953-2.947c0-0.953,0.262-1.734,0.785-2.344s1.193-0.914,2.01-0.914c1.707,0,2.561,1.102,2.561,3.305
		h-3.117c0,1.547,0.393,2.32,1.178,2.32c0.734,0,1.102-0.438,1.102-1.313C44.664,10.771,44.66,10.636,44.652,10.483z M42.379,9.218
		h1.277c0-1.375-0.207-2.063-0.621-2.063c-0.375,0-0.586,0.51-0.633,1.529L42.379,9.218z"/>
	<linearGradient id="SVGID_48_" gradientUnits="userSpaceOnUse" x1="55.3398" y1="12.7803" x2="55.3398" y2="6.5752">
		<stop  offset="0" style="stop-color:#E6332A"/>
		<stop  offset="1" style="stop-color:#F9B233"/>
	</linearGradient>
	<path clip-path="url(#SVGID_2_)" fill="url(#SVGID_48_)" d="M57.162,10.483l0.861,0.252c-0.09,1.363-0.895,2.045-2.414,2.045
		c-1.969,0-2.953-0.982-2.953-2.947c0-0.953,0.262-1.734,0.785-2.344s1.193-0.914,2.01-0.914c1.707,0,2.561,1.102,2.561,3.305
		h-3.117c0,1.547,0.393,2.32,1.178,2.32c0.734,0,1.102-0.438,1.102-1.313C57.174,10.771,57.17,10.636,57.162,10.483z M54.889,9.218
		h1.277c0-1.375-0.207-2.063-0.621-2.063c-0.375,0-0.586,0.51-0.633,1.529L54.889,9.218z"/>
	<linearGradient id="SVGID_49_" gradientUnits="userSpaceOnUse" x1="61.1611" y1="12.6455" x2="61.1611" y2="6.5869">
		<stop  offset="0" style="stop-color:#E6332A"/>
		<stop  offset="1" style="stop-color:#F9B233"/>
	</linearGradient>
	<path clip-path="url(#SVGID_2_)" fill="url(#SVGID_49_)" d="M63.174,8.884h-1.465c0.051-0.23,0.096-0.4,0.135-0.51
		c0.055-0.16,0.082-0.305,0.082-0.434c0-0.25-0.09-0.375-0.27-0.375c-0.137,0-0.268,0.165-0.393,0.495s-0.188,0.679-0.188,1.046
		v3.539h-2.139V6.739l0.416,0.006c0.492,0,1.066-0.053,1.723-0.158V7.56c0.348-0.648,0.773-0.973,1.277-0.973
		c0.688,0,1.031,0.379,1.031,1.137c0,0.199-0.033,0.428-0.1,0.686C63.262,8.515,63.225,8.673,63.174,8.884z"/>
	<linearGradient id="SVGID_50_" gradientUnits="userSpaceOnUse" x1="47.6484" y1="7.2549" x2="47.6484" y2="3.2622">
		<stop  offset="0" style="stop-color:#E6332A"/>
		<stop  offset="1" style="stop-color:#F9B233"/>
	</linearGradient>
	<path clip-path="url(#SVGID_2_)" fill="#FFFFFF" stroke="url(#SVGID_50_)" stroke-width="0.3" stroke-miterlimit="10" d="
		M52.363,7.005V6.712l0.146-0.146l0.146-0.932c-0.164-0.652-0.639-1.094-1.424-1.324l-0.586,0.053L50.6,4.31L50.16,4.457
		l-0.152-0.293l-0.633-0.539l-0.686-0.193l-0.932,0.047l-0.047-0.047l-0.492,0.146l-0.047,0.1l-0.299-0.1l-0.047,0.047L46.68,3.531
		c-0.426-0.133-0.785-0.133-1.078,0l-0.047-0.053l-0.492,0.246l-0.439,0.539l-0.539,0.1L44.037,4.31
		c-0.098-0.031-0.375,0.117-0.832,0.445l-0.246,0.293l-0.293,0.686l0.047,0.047c0,0,0.101,0.108,0.253,0.108
		c1.142,0,1.972,0.403,2.487,1.211l0.366,0.005"/>
	<linearGradient id="SVGID_51_" gradientUnits="userSpaceOnUse" x1="48.1211" y1="16.8799" x2="48.1211" y2="6.9551">
		<stop  offset="0" style="stop-color:#E6332A"/>
		<stop  offset="1" style="stop-color:#F9B233"/>
	</linearGradient>
	<path clip-path="url(#SVGID_2_)" fill="none" stroke="url(#SVGID_51_)" stroke-width="0.3" stroke-miterlimit="10" d="
		M45.819,7.105c0,0,3.839,0,6.361,0c-0.081,5.94-4.394,6.671-4.394,6.671v2.303h2.766c0,0-0.569,0.651-2.929,0.651
		c-2.36,0-3.255-0.651-3.255-0.651h2.93v-1.464"/>
	<linearGradient id="SVGID_52_" gradientUnits="userSpaceOnUse" x1="49.9834" y1="7.9873" x2="49.9834" y2="7.6875">
		<stop  offset="0" style="stop-color:#E6332A"/>
		<stop  offset="1" style="stop-color:#F9B233"/>
	</linearGradient>
	
		<line clip-path="url(#SVGID_2_)" fill="none" stroke="url(#SVGID_52_)" stroke-width="0.3" stroke-miterlimit="10" x1="47.949" y1="7.837" x2="52.018" y2="7.837"/>
	<linearGradient id="SVGID_53_" gradientUnits="userSpaceOnUse" x1="49.6445" y1="10.8867" x2="51.2197" y2="10.8867">
		<stop  offset="0" style="stop-color:#E6332A"/>
		<stop  offset="1" style="stop-color:#F9B233"/>
	</linearGradient>
	<path clip-path="url(#SVGID_2_)" fill="none" stroke="url(#SVGID_53_)" stroke-width="0.1" stroke-miterlimit="10" d="
		M51.172,9.616c-0.335,1.176-0.906,1.976-1.493,2.519"/>
	<ellipse clip-path="url(#SVGID_2_)" fill="#82368C" cx="50.656" cy="5.688" rx="0" ry="0.035"/>
	<rect x="48.938" y="5.268" clip-path="url(#SVGID_2_)" fill="#82368C" width="0" height="0"/>
	<g clip-path="url(#SVGID_2_)">
		<linearGradient id="SVGID_54_" gradientUnits="userSpaceOnUse" x1="46.0273" y1="4.9692" x2="46.0273" y2="4.8784">
			<stop  offset="0" style="stop-color:#E6332A"/>
			<stop  offset="1" style="stop-color:#F9B233"/>
		</linearGradient>
		<circle fill="url(#SVGID_54_)" cx="46.027" cy="4.924" r="0.045"/>
		<linearGradient id="SVGID_55_" gradientUnits="userSpaceOnUse" x1="44.8389" y1="5.8735" x2="44.8389" y2="5.7827">
			<stop  offset="0" style="stop-color:#E6332A"/>
			<stop  offset="1" style="stop-color:#F9B233"/>
		</linearGradient>
		<circle fill="url(#SVGID_55_)" cx="44.839" cy="5.828" r="0.046"/>
		<linearGradient id="SVGID_56_" gradientUnits="userSpaceOnUse" x1="45.584" y1="6.6104" x2="45.584" y2="6.4692">
			<stop  offset="0" style="stop-color:#E6332A"/>
			<stop  offset="1" style="stop-color:#F9B233"/>
		</linearGradient>
		<circle fill="url(#SVGID_56_)" cx="45.584" cy="6.54" r="0.07"/>
		<linearGradient id="SVGID_57_" gradientUnits="userSpaceOnUse" x1="45.9824" y1="6.54" x2="45.9824" y2="6.3989">
			<stop  offset="0" style="stop-color:#E6332A"/>
			<stop  offset="1" style="stop-color:#F9B233"/>
		</linearGradient>
		<circle fill="url(#SVGID_57_)" cx="45.982" cy="6.47" r="0.071"/>
		<linearGradient id="SVGID_58_" gradientUnits="userSpaceOnUse" x1="46.3535" y1="5.9287" x2="46.3535" y2="5.7876">
			<stop  offset="0" style="stop-color:#E6332A"/>
			<stop  offset="1" style="stop-color:#F9B233"/>
		</linearGradient>
		<circle fill="url(#SVGID_58_)" cx="46.354" cy="5.858" r="0.07"/>
		<linearGradient id="SVGID_59_" gradientUnits="userSpaceOnUse" x1="46.4238" y1="6.4111" x2="46.4238" y2="6.27">
			<stop  offset="0" style="stop-color:#E6332A"/>
			<stop  offset="1" style="stop-color:#F9B233"/>
		</linearGradient>
		<circle fill="url(#SVGID_59_)" cx="46.424" cy="6.341" r="0.07"/>
		<linearGradient id="SVGID_60_" gradientUnits="userSpaceOnUse" x1="43.9316" y1="5.1455" x2="43.9316" y2="5.0044">
			<stop  offset="0" style="stop-color:#E6332A"/>
			<stop  offset="1" style="stop-color:#F9B233"/>
		</linearGradient>
		<circle fill="url(#SVGID_60_)" cx="43.932" cy="5.075" r="0.071"/>
		<linearGradient id="SVGID_61_" gradientUnits="userSpaceOnUse" x1="47.5195" y1="6.7407" x2="47.5195" y2="6.6201">
			<stop  offset="0" style="stop-color:#E6332A"/>
			<stop  offset="1" style="stop-color:#F9B233"/>
		</linearGradient>
		<circle fill="url(#SVGID_61_)" cx="47.52" cy="6.68" r="0.061"/>
		<linearGradient id="SVGID_62_" gradientUnits="userSpaceOnUse" x1="45.9102" y1="5.9893" x2="45.9102" y2="5.8687">
			<stop  offset="0" style="stop-color:#E6332A"/>
			<stop  offset="1" style="stop-color:#F9B233"/>
		</linearGradient>
		<circle fill="url(#SVGID_62_)" cx="45.911" cy="5.929" r="0.06"/>
		<linearGradient id="SVGID_63_" gradientUnits="userSpaceOnUse" x1="47.9492" y1="6.2954" x2="47.9492" y2="6.1748">
			<stop  offset="0" style="stop-color:#E6332A"/>
			<stop  offset="1" style="stop-color:#F9B233"/>
		</linearGradient>
		<circle fill="url(#SVGID_63_)" cx="47.949" cy="6.235" r="0.061"/>
		<linearGradient id="SVGID_64_" gradientUnits="userSpaceOnUse" x1="49.9238" y1="4.7637" x2="49.9238" y2="4.6431">
			<stop  offset="0" style="stop-color:#E6332A"/>
			<stop  offset="1" style="stop-color:#F9B233"/>
		</linearGradient>
		<circle fill="url(#SVGID_64_)" cx="49.923" cy="4.703" r="0.06"/>
		<linearGradient id="SVGID_65_" gradientUnits="userSpaceOnUse" x1="49.4795" y1="5.0747" x2="49.4795" y2="4.8638">
			<stop  offset="0" style="stop-color:#E6332A"/>
			<stop  offset="1" style="stop-color:#F9B233"/>
		</linearGradient>
		<circle fill="url(#SVGID_65_)" cx="49.479" cy="4.969" r="0.105"/>
		<linearGradient id="SVGID_66_" gradientUnits="userSpaceOnUse" x1="44.9443" y1="4.7485" x2="44.9443" y2="4.5376">
			<stop  offset="0" style="stop-color:#E6332A"/>
			<stop  offset="1" style="stop-color:#F9B233"/>
		</linearGradient>
		<circle fill="url(#SVGID_66_)" cx="44.944" cy="4.643" r="0.105"/>
		<linearGradient id="SVGID_67_" gradientUnits="userSpaceOnUse" x1="45.4082" y1="5.3472" x2="45.4082" y2="5.1362">
			<stop  offset="0" style="stop-color:#E6332A"/>
			<stop  offset="1" style="stop-color:#F9B233"/>
		</linearGradient>
		<circle fill="url(#SVGID_67_)" cx="45.408" cy="5.242" r="0.105"/>
		<linearGradient id="SVGID_68_" gradientUnits="userSpaceOnUse" x1="51.8066" y1="5.479" x2="51.8066" y2="5.2681">
			<stop  offset="0" style="stop-color:#E6332A"/>
			<stop  offset="1" style="stop-color:#F9B233"/>
		</linearGradient>
		<circle fill="url(#SVGID_68_)" cx="51.807" cy="5.374" r="0.105"/>
		<linearGradient id="SVGID_69_" gradientUnits="userSpaceOnUse" x1="51.4883" y1="5.8281" x2="51.4883" y2="5.6172">
			<stop  offset="0" style="stop-color:#E6332A"/>
			<stop  offset="1" style="stop-color:#F9B233"/>
		</linearGradient>
		<circle fill="url(#SVGID_69_)" cx="51.488" cy="5.723" r="0.105"/>
		<linearGradient id="SVGID_70_" gradientUnits="userSpaceOnUse" x1="50.7617" y1="6.0693" x2="50.7617" y2="5.8584">
			<stop  offset="0" style="stop-color:#E6332A"/>
			<stop  offset="1" style="stop-color:#F9B233"/>
		</linearGradient>
		<circle fill="url(#SVGID_70_)" cx="50.762" cy="5.964" r="0.105"/>
		<linearGradient id="SVGID_71_" gradientUnits="userSpaceOnUse" x1="51.2773" y1="6.3408" x2="51.2773" y2="6.1299">
			<stop  offset="0" style="stop-color:#E6332A"/>
			<stop  offset="1" style="stop-color:#F9B233"/>
		</linearGradient>
		<circle fill="url(#SVGID_71_)" cx="51.277" cy="6.235" r="0.105"/>
		<linearGradient id="SVGID_72_" gradientUnits="userSpaceOnUse" x1="51.8066" y1="6.2354" x2="51.8066" y2="6.0244">
			<stop  offset="0" style="stop-color:#E6332A"/>
			<stop  offset="1" style="stop-color:#F9B233"/>
		</linearGradient>
		<circle fill="url(#SVGID_72_)" cx="51.807" cy="6.13" r="0.105"/>
		<linearGradient id="SVGID_73_" gradientUnits="userSpaceOnUse" x1="49.374" y1="6.7861" x2="49.374" y2="6.5752">
			<stop  offset="0" style="stop-color:#E6332A"/>
			<stop  offset="1" style="stop-color:#F9B233"/>
		</linearGradient>
		<circle fill="url(#SVGID_73_)" cx="49.374" cy="6.681" r="0.105"/>
		<linearGradient id="SVGID_74_" gradientUnits="userSpaceOnUse" x1="45.5938" y1="6.21" x2="45.5938" y2="6.0498">
			<stop  offset="0" style="stop-color:#E6332A"/>
			<stop  offset="1" style="stop-color:#F9B233"/>
		</linearGradient>
		<circle fill="url(#SVGID_74_)" cx="45.594" cy="6.13" r="0.08"/>
		<linearGradient id="SVGID_75_" gradientUnits="userSpaceOnUse" x1="46.9746" y1="6.6299" x2="46.9746" y2="6.4697">
			<stop  offset="0" style="stop-color:#E6332A"/>
			<stop  offset="1" style="stop-color:#F9B233"/>
		</linearGradient>
		<circle fill="url(#SVGID_75_)" cx="46.975" cy="6.55" r="0.08"/>
		<linearGradient id="SVGID_76_" gradientUnits="userSpaceOnUse" x1="48.9375" y1="6.5498" x2="48.9375" y2="6.3896">
			<stop  offset="0" style="stop-color:#E6332A"/>
			<stop  offset="1" style="stop-color:#F9B233"/>
		</linearGradient>
		<circle fill="url(#SVGID_76_)" cx="48.938" cy="6.47" r="0.08"/>
		<linearGradient id="SVGID_77_" gradientUnits="userSpaceOnUse" x1="49.1484" y1="5.3218" x2="49.1484" y2="5.1616">
			<stop  offset="0" style="stop-color:#E6332A"/>
			<stop  offset="1" style="stop-color:#F9B233"/>
		</linearGradient>
		<circle fill="url(#SVGID_77_)" cx="49.148" cy="5.242" r="0.08"/>
	</g>
	<linearGradient id="SVGID_78_" gradientUnits="userSpaceOnUse" x1="1.356" y1="-67.9238" x2="1.356" y2="-72.6274">
		<stop  offset="0" style="stop-color:#E6332A"/>
		<stop  offset="1" style="stop-color:#F9B233"/>
	</linearGradient>
	<path clip-path="url(#SVGID_2_)" fill="url(#SVGID_78_)" d="M1.716-70.396l0.312-1.044c-0.232-0.128-0.348-0.308-0.348-0.54
		c0-0.176,0.074-0.328,0.222-0.456c0.148-0.128,0.322-0.192,0.522-0.192c0.208,0,0.384,0.064,0.528,0.192s0.216,0.28,0.216,0.456
		s-0.072,0.326-0.216,0.45c-0.144,0.125-0.32,0.186-0.528,0.186l0.432,0.948L3.828-71.5c-0.136-0.128-0.204-0.284-0.204-0.468
		c0-0.168,0.064-0.31,0.192-0.426c0.128-0.116,0.284-0.174,0.468-0.174c0.176,0,0.328,0.058,0.456,0.174
		c0.128,0.116,0.192,0.258,0.192,0.426s-0.064,0.312-0.192,0.432s-0.28,0.18-0.456,0.18l-0.216,2.208
		c-0.224-0.04-0.497-0.06-0.816-0.06c-0.6,0-1.296,0.064-2.088,0.192c-0.728,0.112-1.34,0.24-1.836,0.384L-1.5-70.839
		c-0.2,0-0.37-0.05-0.51-0.15c-0.14-0.1-0.21-0.218-0.21-0.354c0-0.136,0.072-0.254,0.216-0.354c0.144-0.1,0.32-0.15,0.528-0.15
		c0.2,0,0.375,0.05,0.522,0.15c0.148,0.1,0.222,0.218,0.222,0.354c0,0.184-0.116,0.324-0.348,0.42l0.936,0.768l0.612-1.2
		c-0.2,0-0.376-0.058-0.528-0.174c-0.152-0.116-0.228-0.25-0.228-0.402c0-0.144,0.074-0.27,0.222-0.378s0.326-0.162,0.534-0.162
		c0.216,0,0.398,0.054,0.546,0.162s0.222,0.234,0.222,0.378c0,0.168-0.096,0.308-0.288,0.42l0.732,0.984L1.716-70.396z
		 M4.392-68.716c0,0.088-0.098,0.172-0.294,0.252c-0.196,0.08-0.442,0.136-0.738,0.168l-3.372,0.36
		c-0.128,0.008-0.252,0.012-0.372,0.012c-0.48,0-0.72-0.072-0.72-0.216c0-0.088,0.098-0.172,0.294-0.252
		c0.196-0.08,0.438-0.136,0.726-0.168l3.384-0.36c0.128-0.008,0.248-0.012,0.36-0.012C4.147-68.932,4.392-68.859,4.392-68.716z"/>
	<linearGradient id="SVGID_79_" gradientUnits="userSpaceOnUse" x1="9.1367" y1="-59.1353" x2="9.1367" y2="-65.3403">
		<stop  offset="0" style="stop-color:#E6332A"/>
		<stop  offset="1" style="stop-color:#F9B233"/>
	</linearGradient>
	<path clip-path="url(#SVGID_2_)" fill="url(#SVGID_79_)" d="M10.959-61.432l0.861,0.252c-0.09,1.363-0.895,2.045-2.414,2.045
		c-1.969,0-2.953-0.982-2.953-2.947c0-0.953,0.262-1.734,0.785-2.344s1.193-0.914,2.01-0.914c1.707,0,2.561,1.102,2.561,3.305H8.691
		c0,1.547,0.393,2.32,1.178,2.32c0.734,0,1.102-0.438,1.102-1.313C10.971-61.145,10.967-61.28,10.959-61.432z M8.686-62.698h1.277
		c0-1.375-0.207-2.063-0.621-2.063c-0.375,0-0.586,0.51-0.633,1.529L8.686-62.698z"/>
	<linearGradient id="SVGID_80_" gradientUnits="userSpaceOnUse" x1="15.1309" y1="-59.1353" x2="15.1309" y2="-65.3403">
		<stop  offset="0" style="stop-color:#E6332A"/>
		<stop  offset="1" style="stop-color:#F9B233"/>
	</linearGradient>
	<path clip-path="url(#SVGID_2_)" fill="url(#SVGID_80_)" d="M16.953-61.432l0.861,0.252c-0.09,1.363-0.895,2.045-2.414,2.045
		c-1.969,0-2.953-0.982-2.953-2.947c0-0.953,0.262-1.734,0.785-2.344s1.193-0.914,2.01-0.914c1.707,0,2.561,1.102,2.561,3.305
		h-3.117c0,1.547,0.393,2.32,1.178,2.32c0.734,0,1.102-0.438,1.102-1.313C16.965-61.145,16.961-61.28,16.953-61.432z M14.68-62.698
		h1.277c0-1.375-0.207-2.063-0.621-2.063c-0.375,0-0.586,0.51-0.633,1.529L14.68-62.698z"/>
	<linearGradient id="SVGID_81_" gradientUnits="userSpaceOnUse" x1="20.9521" y1="-59.27" x2="20.9521" y2="-65.3286">
		<stop  offset="0" style="stop-color:#E6332A"/>
		<stop  offset="1" style="stop-color:#F9B233"/>
	</linearGradient>
	<path clip-path="url(#SVGID_2_)" fill="url(#SVGID_81_)" d="M22.965-63.032H21.5c0.051-0.23,0.096-0.4,0.135-0.51
		c0.055-0.16,0.082-0.305,0.082-0.434c0-0.25-0.09-0.375-0.27-0.375c-0.137,0-0.268,0.165-0.393,0.495s-0.188,0.679-0.188,1.046
		v3.539h-2.139v-5.906l0.416,0.006c0.492,0,1.066-0.053,1.723-0.158v0.973c0.348-0.648,0.773-0.973,1.277-0.973
		c0.688,0,1.031,0.379,1.031,1.137c0,0.199-0.033,0.428-0.1,0.686C23.053-63.401,23.016-63.243,22.965-63.032z"/>
	<linearGradient id="SVGID_82_" gradientUnits="userSpaceOnUse" x1="26.7383" y1="-59.27" x2="26.7383" y2="-67.397">
		<stop  offset="0" style="stop-color:#E6332A"/>
		<stop  offset="1" style="stop-color:#F9B233"/>
	</linearGradient>
	<path clip-path="url(#SVGID_2_)" fill="url(#SVGID_82_)" d="M29.105-65.176l-1.219,1.529l1.758,4.377h-2.256l-1.025-2.602
		l-0.393,0.48v2.121h-2.139v-7.998c0.629,0,1.342-0.043,2.139-0.129v5.004l2.279-2.783H29.105z"/>
	<linearGradient id="SVGID_83_" gradientUnits="userSpaceOnUse" x1="32.5742" y1="-59.1353" x2="32.5742" y2="-65.3403">
		<stop  offset="0" style="stop-color:#E6332A"/>
		<stop  offset="1" style="stop-color:#F9B233"/>
	</linearGradient>
	<path clip-path="url(#SVGID_2_)" fill="url(#SVGID_83_)" d="M34.396-61.432l0.861,0.252c-0.09,1.363-0.895,2.045-2.414,2.045
		c-1.969,0-2.953-0.982-2.953-2.947c0-0.953,0.262-1.734,0.785-2.344s1.193-0.914,2.01-0.914c1.707,0,2.561,1.102,2.561,3.305
		h-3.117c0,1.547,0.393,2.32,1.178,2.32c0.734,0,1.102-0.438,1.102-1.313C34.408-61.145,34.404-61.28,34.396-61.432z M32.123-62.698
		H33.4c0-1.375-0.207-2.063-0.621-2.063c-0.375,0-0.586,0.51-0.633,1.529L32.123-62.698z"/>
	<linearGradient id="SVGID_84_" gradientUnits="userSpaceOnUse" x1="38.5684" y1="-59.1353" x2="38.5684" y2="-65.3403">
		<stop  offset="0" style="stop-color:#E6332A"/>
		<stop  offset="1" style="stop-color:#F9B233"/>
	</linearGradient>
	<path clip-path="url(#SVGID_2_)" fill="url(#SVGID_84_)" d="M40.391-61.432l0.861,0.252c-0.09,1.363-0.895,2.045-2.414,2.045
		c-1.969,0-2.953-0.982-2.953-2.947c0-0.953,0.262-1.734,0.785-2.344s1.193-0.914,2.01-0.914c1.707,0,2.561,1.102,2.561,3.305
		h-3.117c0,1.547,0.393,2.32,1.178,2.32c0.734,0,1.102-0.438,1.102-1.313C40.402-61.145,40.398-61.28,40.391-61.432z M38.117-62.698
		h1.277c0-1.375-0.207-2.063-0.621-2.063c-0.375,0-0.586,0.51-0.633,1.529L38.117-62.698z"/>
	<linearGradient id="SVGID_85_" gradientUnits="userSpaceOnUse" x1="51.0781" y1="-59.1353" x2="51.0781" y2="-65.3403">
		<stop  offset="0" style="stop-color:#E6332A"/>
		<stop  offset="1" style="stop-color:#F9B233"/>
	</linearGradient>
	<path clip-path="url(#SVGID_2_)" fill="url(#SVGID_85_)" d="M52.9-61.432l0.861,0.252c-0.09,1.363-0.895,2.045-2.414,2.045
		c-1.969,0-2.953-0.982-2.953-2.947c0-0.953,0.262-1.734,0.785-2.344s1.193-0.914,2.01-0.914c1.707,0,2.561,1.102,2.561,3.305
		h-3.117c0,1.547,0.393,2.32,1.178,2.32c0.734,0,1.102-0.438,1.102-1.313C52.912-61.145,52.908-61.28,52.9-61.432z M50.627-62.698
		h1.277c0-1.375-0.207-2.063-0.621-2.063c-0.375,0-0.586,0.51-0.633,1.529L50.627-62.698z"/>
	<linearGradient id="SVGID_86_" gradientUnits="userSpaceOnUse" x1="56.8994" y1="-59.27" x2="56.8994" y2="-65.3286">
		<stop  offset="0" style="stop-color:#E6332A"/>
		<stop  offset="1" style="stop-color:#F9B233"/>
	</linearGradient>
	<path clip-path="url(#SVGID_2_)" fill="url(#SVGID_86_)" d="M58.912-63.032h-1.465c0.051-0.23,0.096-0.4,0.135-0.51
		c0.055-0.16,0.082-0.305,0.082-0.434c0-0.25-0.09-0.375-0.27-0.375c-0.137,0-0.268,0.165-0.393,0.495s-0.188,0.679-0.188,1.046
		v3.539h-2.139v-5.906l0.416,0.006c0.492,0,1.066-0.053,1.723-0.158v0.973c0.348-0.648,0.773-0.973,1.277-0.973
		c0.688,0,1.031,0.379,1.031,1.137c0,0.199-0.033,0.428-0.1,0.686C59-63.401,58.963-63.243,58.912-63.032z"/>
	<linearGradient id="SVGID_87_" gradientUnits="userSpaceOnUse" x1="43.3867" y1="-64.6606" x2="43.3867" y2="-68.6533">
		<stop  offset="0" style="stop-color:#E6332A"/>
		<stop  offset="1" style="stop-color:#F9B233"/>
	</linearGradient>
	<path clip-path="url(#SVGID_2_)" fill="#FFFFFF" stroke="url(#SVGID_87_)" stroke-width="0.3" stroke-miterlimit="10" d="
		M48.102-64.91v-0.293l0.146-0.146l0.146-0.932c-0.164-0.652-0.639-1.094-1.424-1.324l-0.586,0.053l-0.047-0.053l-0.439,0.146
		l-0.152-0.293l-0.633-0.539l-0.686-0.193l-0.932,0.047l-0.047-0.047l-0.492,0.146l-0.047,0.1l-0.299-0.1l-0.047,0.047l-0.146-0.094
		c-0.426-0.133-0.785-0.133-1.078,0l-0.047-0.053l-0.492,0.246l-0.439,0.539l-0.539,0.1l-0.047-0.053
		c-0.098-0.031-0.375,0.117-0.832,0.445l-0.246,0.293l-0.293,0.686l0.047,0.047c0,0,0.101,0.108,0.253,0.108
		c1.142,0,1.972,0.403,2.487,1.211l0.366,0.005"/>
	<g clip-path="url(#SVGID_2_)">
		<linearGradient id="SVGID_88_" gradientUnits="userSpaceOnUse" x1="43.8594" y1="-55.0356" x2="43.8594" y2="-64.9604">
			<stop  offset="0" style="stop-color:#E6332A"/>
			<stop  offset="1" style="stop-color:#F9B233"/>
		</linearGradient>
		<path fill="none" stroke="url(#SVGID_88_)" stroke-width="0.3" stroke-miterlimit="10" d="M41.558-64.811c0,0,3.839,0,6.361,0
			c-0.081,5.94-4.394,6.671-4.394,6.671v2.303h2.766c0,0-0.569,0.651-2.929,0.651c-2.36,0-3.255-0.651-3.255-0.651h2.93v-1.464"/>
		<linearGradient id="SVGID_89_" gradientUnits="userSpaceOnUse" x1="45.7217" y1="-63.9282" x2="45.7217" y2="-64.228">
			<stop  offset="0" style="stop-color:#E6332A"/>
			<stop  offset="1" style="stop-color:#F9B233"/>
		</linearGradient>
		
			<line fill="none" stroke="url(#SVGID_89_)" stroke-width="0.3" stroke-miterlimit="10" x1="43.688" y1="-64.078" x2="47.756" y2="-64.078"/>
	</g>
	<g clip-path="url(#SVGID_2_)">
		<linearGradient id="SVGID_90_" gradientUnits="userSpaceOnUse" x1="45.3828" y1="-61.0283" x2="46.958" y2="-61.0283">
			<stop  offset="0" style="stop-color:#E6332A"/>
			<stop  offset="1" style="stop-color:#F9B233"/>
		</linearGradient>
		<path fill="none" stroke="url(#SVGID_90_)" stroke-width="0.1" stroke-miterlimit="10" d="M46.91-62.299
			c-0.335,1.176-0.906,1.976-1.493,2.519"/>
	</g>
	<g clip-path="url(#SVGID_2_)">
		<linearGradient id="SVGID_91_" gradientUnits="userSpaceOnUse" x1="41.7656" y1="-66.9463" x2="41.7656" y2="-67.0371">
			<stop  offset="0" style="stop-color:#E6332A"/>
			<stop  offset="1" style="stop-color:#F9B233"/>
		</linearGradient>
		<circle fill="url(#SVGID_91_)" cx="41.766" cy="-66.992" r="0.045"/>
		<linearGradient id="SVGID_92_" gradientUnits="userSpaceOnUse" x1="40.5771" y1="-66.042" x2="40.5771" y2="-66.1328">
			<stop  offset="0" style="stop-color:#E6332A"/>
			<stop  offset="1" style="stop-color:#F9B233"/>
		</linearGradient>
		<circle fill="url(#SVGID_92_)" cx="40.577" cy="-66.087" r="0.046"/>
		<linearGradient id="SVGID_93_" gradientUnits="userSpaceOnUse" x1="41.3223" y1="-65.3052" x2="41.3223" y2="-65.4463">
			<stop  offset="0" style="stop-color:#E6332A"/>
			<stop  offset="1" style="stop-color:#F9B233"/>
		</linearGradient>
		<circle fill="url(#SVGID_93_)" cx="41.322" cy="-65.375" r="0.07"/>
		<linearGradient id="SVGID_94_" gradientUnits="userSpaceOnUse" x1="41.7207" y1="-65.3755" x2="41.7207" y2="-65.5166">
			<stop  offset="0" style="stop-color:#E6332A"/>
			<stop  offset="1" style="stop-color:#F9B233"/>
		</linearGradient>
		<circle fill="url(#SVGID_94_)" cx="41.72" cy="-65.446" r="0.071"/>
		<linearGradient id="SVGID_95_" gradientUnits="userSpaceOnUse" x1="42.0918" y1="-65.9868" x2="42.0918" y2="-66.1279">
			<stop  offset="0" style="stop-color:#E6332A"/>
			<stop  offset="1" style="stop-color:#F9B233"/>
		</linearGradient>
		<circle fill="url(#SVGID_95_)" cx="42.092" cy="-66.057" r="0.07"/>
		<linearGradient id="SVGID_96_" gradientUnits="userSpaceOnUse" x1="42.1621" y1="-65.5044" x2="42.1621" y2="-65.6455">
			<stop  offset="0" style="stop-color:#E6332A"/>
			<stop  offset="1" style="stop-color:#F9B233"/>
		</linearGradient>
		<circle fill="url(#SVGID_96_)" cx="42.162" cy="-65.575" r="0.07"/>
		<linearGradient id="SVGID_97_" gradientUnits="userSpaceOnUse" x1="39.6699" y1="-66.77" x2="39.6699" y2="-66.9111">
			<stop  offset="0" style="stop-color:#E6332A"/>
			<stop  offset="1" style="stop-color:#F9B233"/>
		</linearGradient>
		<circle fill="url(#SVGID_97_)" cx="39.67" cy="-66.84" r="0.071"/>
		<linearGradient id="SVGID_98_" gradientUnits="userSpaceOnUse" x1="43.2578" y1="-65.1748" x2="43.2578" y2="-65.2954">
			<stop  offset="0" style="stop-color:#E6332A"/>
			<stop  offset="1" style="stop-color:#F9B233"/>
		</linearGradient>
		<circle fill="url(#SVGID_98_)" cx="43.258" cy="-65.235" r="0.061"/>
		<linearGradient id="SVGID_99_" gradientUnits="userSpaceOnUse" x1="41.6484" y1="-65.9263" x2="41.6484" y2="-66.0469">
			<stop  offset="0" style="stop-color:#E6332A"/>
			<stop  offset="1" style="stop-color:#F9B233"/>
		</linearGradient>
		<circle fill="url(#SVGID_99_)" cx="41.649" cy="-65.987" r="0.06"/>
		<linearGradient id="SVGID_100_" gradientUnits="userSpaceOnUse" x1="43.6875" y1="-65.6201" x2="43.6875" y2="-65.7407">
			<stop  offset="0" style="stop-color:#E6332A"/>
			<stop  offset="1" style="stop-color:#F9B233"/>
		</linearGradient>
		<circle fill="url(#SVGID_100_)" cx="43.688" cy="-65.681" r="0.061"/>
		<linearGradient id="SVGID_101_" gradientUnits="userSpaceOnUse" x1="45.6621" y1="-67.1519" x2="45.6621" y2="-67.2725">
			<stop  offset="0" style="stop-color:#E6332A"/>
			<stop  offset="1" style="stop-color:#F9B233"/>
		</linearGradient>
		<circle fill="url(#SVGID_101_)" cx="45.662" cy="-67.212" r="0.06"/>
		<linearGradient id="SVGID_102_" gradientUnits="userSpaceOnUse" x1="45.2178" y1="-66.8408" x2="45.2178" y2="-67.0518">
			<stop  offset="0" style="stop-color:#E6332A"/>
			<stop  offset="1" style="stop-color:#F9B233"/>
		</linearGradient>
		<circle fill="url(#SVGID_102_)" cx="45.218" cy="-66.946" r="0.105"/>
		<linearGradient id="SVGID_103_" gradientUnits="userSpaceOnUse" x1="40.6826" y1="-67.167" x2="40.6826" y2="-67.3779">
			<stop  offset="0" style="stop-color:#E6332A"/>
			<stop  offset="1" style="stop-color:#F9B233"/>
		</linearGradient>
		<circle fill="url(#SVGID_103_)" cx="40.683" cy="-67.272" r="0.105"/>
		<linearGradient id="SVGID_104_" gradientUnits="userSpaceOnUse" x1="41.1465" y1="-66.5684" x2="41.1465" y2="-66.7793">
			<stop  offset="0" style="stop-color:#E6332A"/>
			<stop  offset="1" style="stop-color:#F9B233"/>
		</linearGradient>
		<circle fill="url(#SVGID_104_)" cx="41.146" cy="-66.674" r="0.105"/>
		<linearGradient id="SVGID_105_" gradientUnits="userSpaceOnUse" x1="47.5449" y1="-66.4365" x2="47.5449" y2="-66.6475">
			<stop  offset="0" style="stop-color:#E6332A"/>
			<stop  offset="1" style="stop-color:#F9B233"/>
		</linearGradient>
		<circle fill="url(#SVGID_105_)" cx="47.545" cy="-66.542" r="0.105"/>
		<linearGradient id="SVGID_106_" gradientUnits="userSpaceOnUse" x1="47.2266" y1="-66.0874" x2="47.2266" y2="-66.2983">
			<stop  offset="0" style="stop-color:#E6332A"/>
			<stop  offset="1" style="stop-color:#F9B233"/>
		</linearGradient>
		<circle fill="url(#SVGID_106_)" cx="47.227" cy="-66.193" r="0.105"/>
		<linearGradient id="SVGID_107_" gradientUnits="userSpaceOnUse" x1="46.5" y1="-65.8462" x2="46.5" y2="-66.0571">
			<stop  offset="0" style="stop-color:#E6332A"/>
			<stop  offset="1" style="stop-color:#F9B233"/>
		</linearGradient>
		<circle fill="url(#SVGID_107_)" cx="46.5" cy="-65.952" r="0.105"/>
		<linearGradient id="SVGID_108_" gradientUnits="userSpaceOnUse" x1="47.0156" y1="-65.5747" x2="47.0156" y2="-65.7856">
			<stop  offset="0" style="stop-color:#E6332A"/>
			<stop  offset="1" style="stop-color:#F9B233"/>
		</linearGradient>
		<circle fill="url(#SVGID_108_)" cx="47.016" cy="-65.68" r="0.105"/>
		<linearGradient id="SVGID_109_" gradientUnits="userSpaceOnUse" x1="47.5449" y1="-65.6802" x2="47.5449" y2="-65.8911">
			<stop  offset="0" style="stop-color:#E6332A"/>
			<stop  offset="1" style="stop-color:#F9B233"/>
		</linearGradient>
		<circle fill="url(#SVGID_109_)" cx="47.545" cy="-65.786" r="0.105"/>
		<linearGradient id="SVGID_110_" gradientUnits="userSpaceOnUse" x1="45.1123" y1="-65.1294" x2="45.1123" y2="-65.3403">
			<stop  offset="0" style="stop-color:#E6332A"/>
			<stop  offset="1" style="stop-color:#F9B233"/>
		</linearGradient>
		<circle fill="url(#SVGID_110_)" cx="45.112" cy="-65.235" r="0.105"/>
		<linearGradient id="SVGID_111_" gradientUnits="userSpaceOnUse" x1="41.332" y1="-65.7056" x2="41.332" y2="-65.8657">
			<stop  offset="0" style="stop-color:#E6332A"/>
			<stop  offset="1" style="stop-color:#F9B233"/>
		</linearGradient>
		<circle fill="url(#SVGID_111_)" cx="41.332" cy="-65.786" r="0.08"/>
		<linearGradient id="SVGID_112_" gradientUnits="userSpaceOnUse" x1="42.7129" y1="-65.2856" x2="42.7129" y2="-65.4458">
			<stop  offset="0" style="stop-color:#E6332A"/>
			<stop  offset="1" style="stop-color:#F9B233"/>
		</linearGradient>
		<circle fill="url(#SVGID_112_)" cx="42.713" cy="-65.366" r="0.08"/>
		<linearGradient id="SVGID_113_" gradientUnits="userSpaceOnUse" x1="44.6758" y1="-65.3657" x2="44.6758" y2="-65.5259">
			<stop  offset="0" style="stop-color:#E6332A"/>
			<stop  offset="1" style="stop-color:#F9B233"/>
		</linearGradient>
		<circle fill="url(#SVGID_113_)" cx="44.676" cy="-65.446" r="0.08"/>
		<linearGradient id="SVGID_114_" gradientUnits="userSpaceOnUse" x1="44.8867" y1="-66.5938" x2="44.8867" y2="-66.7539">
			<stop  offset="0" style="stop-color:#E6332A"/>
			<stop  offset="1" style="stop-color:#F9B233"/>
		</linearGradient>
		<circle fill="url(#SVGID_114_)" cx="44.887" cy="-66.674" r="0.08"/>
	</g>
	<g clip-path="url(#SVGID_2_)">
		<linearGradient id="SVGID_115_" gradientUnits="userSpaceOnUse" x1="3.1074" y1="-59.0063" x2="3.1074" y2="-67.2563">
			<stop  offset="0" style="stop-color:#E6332A"/>
			<stop  offset="1" style="stop-color:#F9B233"/>
		</linearGradient>
		<path fill="url(#SVGID_115_)" d="M0.324-59.135v-7.998c0.348,0,1.061-0.041,2.139-0.123v2.842c0.398-0.52,0.842-0.779,1.33-0.779
			c1.398,0,2.098,0.969,2.098,2.906c0,2.188-0.832,3.281-2.496,3.281c-0.785,0-1.455-0.369-2.01-1.107l-0.527,0.979H0.324z
			 M3.131-64.333c-0.473,0-0.709,0.684-0.709,2.051c0,1.609,0.23,2.414,0.691,2.414c0.402,0,0.604-0.42,0.604-1.26l0.035-1.447
			l-0.041-0.814C3.648-64.018,3.455-64.333,3.131-64.333z"/>
	</g>
	<linearGradient id="SVGID_116_" gradientUnits="userSpaceOnUse" x1="15.377" y1="-27.2051" x2="15.377" y2="-33.4102">
		<stop  offset="0" style="stop-color:#E6332A"/>
		<stop  offset="1" style="stop-color:#F9B233"/>
	</linearGradient>
	<path clip-path="url(#SVGID_2_)" fill="url(#SVGID_116_)" d="M17.199-29.502l0.861,0.252c-0.09,1.363-0.895,2.045-2.414,2.045
		c-1.969,0-2.953-0.982-2.953-2.947c0-0.953,0.262-1.734,0.785-2.344s1.193-0.914,2.01-0.914c1.707,0,2.561,1.102,2.561,3.305
		h-3.117c0,1.547,0.393,2.32,1.178,2.32c0.734,0,1.102-0.438,1.102-1.313C17.211-29.215,17.207-29.35,17.199-29.502z M14.926-30.768
		h1.277c0-1.375-0.207-2.063-0.621-2.063c-0.375,0-0.586,0.51-0.633,1.529L14.926-30.768z"/>
	<linearGradient id="SVGID_117_" gradientUnits="userSpaceOnUse" x1="21.3711" y1="-27.2051" x2="21.3711" y2="-33.4102">
		<stop  offset="0" style="stop-color:#E6332A"/>
		<stop  offset="1" style="stop-color:#F9B233"/>
	</linearGradient>
	<path clip-path="url(#SVGID_2_)" fill="url(#SVGID_117_)" d="M23.193-29.502l0.861,0.252c-0.09,1.363-0.895,2.045-2.414,2.045
		c-1.969,0-2.953-0.982-2.953-2.947c0-0.953,0.262-1.734,0.785-2.344s1.193-0.914,2.01-0.914c1.707,0,2.561,1.102,2.561,3.305
		h-3.117c0,1.547,0.393,2.32,1.178,2.32c0.734,0,1.102-0.438,1.102-1.313C23.205-29.215,23.201-29.35,23.193-29.502z M20.92-30.768
		h1.277c0-1.375-0.207-2.063-0.621-2.063c-0.375,0-0.586,0.51-0.633,1.529L20.92-30.768z"/>
	<linearGradient id="SVGID_118_" gradientUnits="userSpaceOnUse" x1="27.1924" y1="-27.3398" x2="27.1924" y2="-33.3984">
		<stop  offset="0" style="stop-color:#E6332A"/>
		<stop  offset="1" style="stop-color:#F9B233"/>
	</linearGradient>
	<path clip-path="url(#SVGID_2_)" fill="url(#SVGID_118_)" d="M29.205-31.102H27.74c0.051-0.23,0.096-0.4,0.135-0.51
		c0.055-0.16,0.082-0.305,0.082-0.434c0-0.25-0.09-0.375-0.27-0.375c-0.137,0-0.268,0.165-0.393,0.495s-0.188,0.679-0.188,1.046
		v3.539h-2.139v-5.906l0.416,0.006c0.492,0,1.066-0.053,1.723-0.158v0.973c0.348-0.648,0.773-0.973,1.277-0.973
		c0.688,0,1.031,0.379,1.031,1.137c0,0.199-0.033,0.428-0.1,0.686C29.293-31.471,29.256-31.313,29.205-31.102z"/>
	<linearGradient id="SVGID_119_" gradientUnits="userSpaceOnUse" x1="32.9785" y1="-27.3398" x2="32.9785" y2="-35.4668">
		<stop  offset="0" style="stop-color:#E6332A"/>
		<stop  offset="1" style="stop-color:#F9B233"/>
	</linearGradient>
	<path clip-path="url(#SVGID_2_)" fill="url(#SVGID_119_)" d="M35.346-33.246l-1.219,1.529l1.758,4.377h-2.256l-1.025-2.602
		l-0.393,0.48v2.121h-2.139v-7.998c0.629,0,1.342-0.043,2.139-0.129v5.004l2.279-2.783H35.346z"/>
	<linearGradient id="SVGID_120_" gradientUnits="userSpaceOnUse" x1="38.8145" y1="-27.2051" x2="38.8145" y2="-33.4102">
		<stop  offset="0" style="stop-color:#E6332A"/>
		<stop  offset="1" style="stop-color:#F9B233"/>
	</linearGradient>
	<path clip-path="url(#SVGID_2_)" fill="url(#SVGID_120_)" d="M40.637-29.502l0.861,0.252c-0.09,1.363-0.895,2.045-2.414,2.045
		c-1.969,0-2.953-0.982-2.953-2.947c0-0.953,0.262-1.734,0.785-2.344s1.193-0.914,2.01-0.914c1.707,0,2.561,1.102,2.561,3.305
		h-3.117c0,1.547,0.393,2.32,1.178,2.32c0.734,0,1.102-0.438,1.102-1.313C40.648-29.215,40.645-29.35,40.637-29.502z M38.363-30.768
		h1.277c0-1.375-0.207-2.063-0.621-2.063c-0.375,0-0.586,0.51-0.633,1.529L38.363-30.768z"/>
	<linearGradient id="SVGID_121_" gradientUnits="userSpaceOnUse" x1="44.8086" y1="-27.2051" x2="44.8086" y2="-33.4102">
		<stop  offset="0" style="stop-color:#E6332A"/>
		<stop  offset="1" style="stop-color:#F9B233"/>
	</linearGradient>
	<path clip-path="url(#SVGID_2_)" fill="url(#SVGID_121_)" d="M46.631-29.502l0.861,0.252c-0.09,1.363-0.895,2.045-2.414,2.045
		c-1.969,0-2.953-0.982-2.953-2.947c0-0.953,0.262-1.734,0.785-2.344s1.193-0.914,2.01-0.914c1.707,0,2.561,1.102,2.561,3.305
		h-3.117c0,1.547,0.393,2.32,1.178,2.32c0.734,0,1.102-0.438,1.102-1.313C46.643-29.215,46.639-29.35,46.631-29.502z M44.357-30.768
		h1.277c0-1.375-0.207-2.063-0.621-2.063c-0.375,0-0.586,0.51-0.633,1.529L44.357-30.768z"/>
	<linearGradient id="SVGID_122_" gradientUnits="userSpaceOnUse" x1="57.3184" y1="-27.2051" x2="57.3184" y2="-33.4102">
		<stop  offset="0" style="stop-color:#E6332A"/>
		<stop  offset="1" style="stop-color:#F9B233"/>
	</linearGradient>
	<path clip-path="url(#SVGID_2_)" fill="url(#SVGID_122_)" d="M59.141-29.502l0.861,0.252c-0.09,1.363-0.895,2.045-2.414,2.045
		c-1.969,0-2.953-0.982-2.953-2.947c0-0.953,0.262-1.734,0.785-2.344s1.193-0.914,2.01-0.914c1.707,0,2.561,1.102,2.561,3.305
		h-3.117c0,1.547,0.393,2.32,1.178,2.32c0.734,0,1.102-0.438,1.102-1.313C59.152-29.215,59.148-29.35,59.141-29.502z M56.867-30.768
		h1.277c0-1.375-0.207-2.063-0.621-2.063c-0.375,0-0.586,0.51-0.633,1.529L56.867-30.768z"/>
	<linearGradient id="SVGID_123_" gradientUnits="userSpaceOnUse" x1="63.1396" y1="-27.3398" x2="63.1396" y2="-33.3984">
		<stop  offset="0" style="stop-color:#E6332A"/>
		<stop  offset="1" style="stop-color:#F9B233"/>
	</linearGradient>
	<path clip-path="url(#SVGID_2_)" fill="url(#SVGID_123_)" d="M65.152-31.102h-1.465c0.051-0.23,0.096-0.4,0.135-0.51
		c0.055-0.16,0.082-0.305,0.082-0.434c0-0.25-0.09-0.375-0.27-0.375c-0.137,0-0.268,0.165-0.393,0.495s-0.188,0.679-0.188,1.046
		v3.539h-2.139v-5.906l0.416,0.006c0.492,0,1.066-0.053,1.723-0.158v0.973c0.348-0.648,0.773-0.973,1.277-0.973
		c0.688,0,1.031,0.379,1.031,1.137c0,0.199-0.033,0.428-0.1,0.686C65.24-31.471,65.203-31.313,65.152-31.102z"/>
	<linearGradient id="SVGID_124_" gradientUnits="userSpaceOnUse" x1="49.627" y1="-32.7305" x2="49.627" y2="-36.7231">
		<stop  offset="0" style="stop-color:#E6332A"/>
		<stop  offset="1" style="stop-color:#F9B233"/>
	</linearGradient>
	<path clip-path="url(#SVGID_2_)" fill="#FFFFFF" stroke="url(#SVGID_124_)" stroke-width="0.3" stroke-miterlimit="10" d="
		M54.342-32.98v-0.293l0.146-0.146l0.146-0.932c-0.164-0.652-0.639-1.094-1.424-1.324l-0.586,0.053l-0.047-0.053l-0.439,0.146
		l-0.152-0.293l-0.633-0.539l-0.686-0.193l-0.932,0.047l-0.047-0.047l-0.492,0.146l-0.047,0.1l-0.299-0.1l-0.047,0.047l-0.146-0.094
		c-0.426-0.133-0.785-0.133-1.078,0l-0.047-0.053l-0.492,0.246l-0.439,0.539l-0.539,0.1l-0.047-0.053
		c-0.098-0.031-0.375,0.117-0.832,0.445l-0.246,0.293l-0.293,0.686l0.047,0.047c0,0,0.101,0.108,0.253,0.108
		c1.142,0,1.972,0.403,2.487,1.211l0.366,0.005"/>
	<g clip-path="url(#SVGID_2_)">
		<linearGradient id="SVGID_125_" gradientUnits="userSpaceOnUse" x1="50.0996" y1="-23.1055" x2="50.0996" y2="-33.0303">
			<stop  offset="0" style="stop-color:#E6332A"/>
			<stop  offset="1" style="stop-color:#F9B233"/>
		</linearGradient>
		<path fill="none" stroke="url(#SVGID_125_)" stroke-width="0.3" stroke-miterlimit="10" d="M47.798-32.88c0,0,3.839,0,6.361,0
			c-0.081,5.94-4.394,6.671-4.394,6.671v2.303h2.766c0,0-0.569,0.651-2.929,0.651c-2.36,0-3.255-0.651-3.255-0.651h2.93v-1.464"/>
		<linearGradient id="SVGID_126_" gradientUnits="userSpaceOnUse" x1="51.9619" y1="-31.998" x2="51.9619" y2="-32.2979">
			<stop  offset="0" style="stop-color:#E6332A"/>
			<stop  offset="1" style="stop-color:#F9B233"/>
		</linearGradient>
		
			<line fill="none" stroke="url(#SVGID_126_)" stroke-width="0.3" stroke-miterlimit="10" x1="49.928" y1="-32.148" x2="53.996" y2="-32.148"/>
	</g>
	<g clip-path="url(#SVGID_2_)">
		<linearGradient id="SVGID_127_" gradientUnits="userSpaceOnUse" x1="51.623" y1="-29.0986" x2="53.1982" y2="-29.0986">
			<stop  offset="0" style="stop-color:#E6332A"/>
			<stop  offset="1" style="stop-color:#F9B233"/>
		</linearGradient>
		<path fill="none" stroke="url(#SVGID_127_)" stroke-width="0.1" stroke-miterlimit="10" d="M53.15-30.369
			c-0.335,1.176-0.906,1.976-1.493,2.519"/>
	</g>
	<g clip-path="url(#SVGID_2_)">
		<linearGradient id="SVGID_128_" gradientUnits="userSpaceOnUse" x1="48.0059" y1="-35.0161" x2="48.0059" y2="-35.1069">
			<stop  offset="0" style="stop-color:#E6332A"/>
			<stop  offset="1" style="stop-color:#F9B233"/>
		</linearGradient>
		<circle fill="url(#SVGID_128_)" cx="48.006" cy="-35.062" r="0.045"/>
		<linearGradient id="SVGID_129_" gradientUnits="userSpaceOnUse" x1="46.8174" y1="-34.1118" x2="46.8174" y2="-34.2026">
			<stop  offset="0" style="stop-color:#E6332A"/>
			<stop  offset="1" style="stop-color:#F9B233"/>
		</linearGradient>
		<circle fill="url(#SVGID_129_)" cx="46.817" cy="-34.157" r="0.046"/>
		<linearGradient id="SVGID_130_" gradientUnits="userSpaceOnUse" x1="47.5625" y1="-33.375" x2="47.5625" y2="-33.5161">
			<stop  offset="0" style="stop-color:#E6332A"/>
			<stop  offset="1" style="stop-color:#F9B233"/>
		</linearGradient>
		<circle fill="url(#SVGID_130_)" cx="47.563" cy="-33.445" r="0.07"/>
		<linearGradient id="SVGID_131_" gradientUnits="userSpaceOnUse" x1="47.9609" y1="-33.4453" x2="47.9609" y2="-33.5864">
			<stop  offset="0" style="stop-color:#E6332A"/>
			<stop  offset="1" style="stop-color:#F9B233"/>
		</linearGradient>
		<circle fill="url(#SVGID_131_)" cx="47.96" cy="-33.516" r="0.071"/>
		<linearGradient id="SVGID_132_" gradientUnits="userSpaceOnUse" x1="48.332" y1="-34.0566" x2="48.332" y2="-34.1978">
			<stop  offset="0" style="stop-color:#E6332A"/>
			<stop  offset="1" style="stop-color:#F9B233"/>
		</linearGradient>
		<circle fill="url(#SVGID_132_)" cx="48.332" cy="-34.127" r="0.07"/>
		<linearGradient id="SVGID_133_" gradientUnits="userSpaceOnUse" x1="48.4023" y1="-33.5742" x2="48.4023" y2="-33.7153">
			<stop  offset="0" style="stop-color:#E6332A"/>
			<stop  offset="1" style="stop-color:#F9B233"/>
		</linearGradient>
		<circle fill="url(#SVGID_133_)" cx="48.402" cy="-33.645" r="0.07"/>
		<linearGradient id="SVGID_134_" gradientUnits="userSpaceOnUse" x1="45.9102" y1="-34.8398" x2="45.9102" y2="-34.981">
			<stop  offset="0" style="stop-color:#E6332A"/>
			<stop  offset="1" style="stop-color:#F9B233"/>
		</linearGradient>
		<circle fill="url(#SVGID_134_)" cx="45.911" cy="-34.91" r="0.071"/>
		<linearGradient id="SVGID_135_" gradientUnits="userSpaceOnUse" x1="49.498" y1="-33.2446" x2="49.498" y2="-33.3652">
			<stop  offset="0" style="stop-color:#E6332A"/>
			<stop  offset="1" style="stop-color:#F9B233"/>
		</linearGradient>
		<circle fill="url(#SVGID_135_)" cx="49.498" cy="-33.305" r="0.061"/>
		<linearGradient id="SVGID_136_" gradientUnits="userSpaceOnUse" x1="47.8887" y1="-33.9961" x2="47.8887" y2="-34.1167">
			<stop  offset="0" style="stop-color:#E6332A"/>
			<stop  offset="1" style="stop-color:#F9B233"/>
		</linearGradient>
		<circle fill="url(#SVGID_136_)" cx="47.889" cy="-34.057" r="0.06"/>
		<linearGradient id="SVGID_137_" gradientUnits="userSpaceOnUse" x1="49.9277" y1="-33.6899" x2="49.9277" y2="-33.8105">
			<stop  offset="0" style="stop-color:#E6332A"/>
			<stop  offset="1" style="stop-color:#F9B233"/>
		</linearGradient>
		<circle fill="url(#SVGID_137_)" cx="49.928" cy="-33.75" r="0.061"/>
		<linearGradient id="SVGID_138_" gradientUnits="userSpaceOnUse" x1="51.9023" y1="-35.2217" x2="51.9023" y2="-35.3423">
			<stop  offset="0" style="stop-color:#E6332A"/>
			<stop  offset="1" style="stop-color:#F9B233"/>
		</linearGradient>
		<circle fill="url(#SVGID_138_)" cx="51.902" cy="-35.282" r="0.06"/>
		<linearGradient id="SVGID_139_" gradientUnits="userSpaceOnUse" x1="51.458" y1="-34.9106" x2="51.458" y2="-35.1216">
			<stop  offset="0" style="stop-color:#E6332A"/>
			<stop  offset="1" style="stop-color:#F9B233"/>
		</linearGradient>
		<circle fill="url(#SVGID_139_)" cx="51.458" cy="-35.016" r="0.105"/>
		<linearGradient id="SVGID_140_" gradientUnits="userSpaceOnUse" x1="46.9229" y1="-35.2368" x2="46.9229" y2="-35.4478">
			<stop  offset="0" style="stop-color:#E6332A"/>
			<stop  offset="1" style="stop-color:#F9B233"/>
		</linearGradient>
		<circle fill="url(#SVGID_140_)" cx="46.923" cy="-35.342" r="0.105"/>
		<linearGradient id="SVGID_141_" gradientUnits="userSpaceOnUse" x1="47.3867" y1="-34.6382" x2="47.3867" y2="-34.8491">
			<stop  offset="0" style="stop-color:#E6332A"/>
			<stop  offset="1" style="stop-color:#F9B233"/>
		</linearGradient>
		<circle fill="url(#SVGID_141_)" cx="47.387" cy="-34.744" r="0.105"/>
		<linearGradient id="SVGID_142_" gradientUnits="userSpaceOnUse" x1="53.7852" y1="-34.5063" x2="53.7852" y2="-34.7173">
			<stop  offset="0" style="stop-color:#E6332A"/>
			<stop  offset="1" style="stop-color:#F9B233"/>
		</linearGradient>
		<circle fill="url(#SVGID_142_)" cx="53.785" cy="-34.612" r="0.105"/>
		<linearGradient id="SVGID_143_" gradientUnits="userSpaceOnUse" x1="53.4668" y1="-34.1572" x2="53.4668" y2="-34.3682">
			<stop  offset="0" style="stop-color:#E6332A"/>
			<stop  offset="1" style="stop-color:#F9B233"/>
		</linearGradient>
		<circle fill="url(#SVGID_143_)" cx="53.467" cy="-34.263" r="0.105"/>
		<linearGradient id="SVGID_144_" gradientUnits="userSpaceOnUse" x1="52.7402" y1="-33.916" x2="52.7402" y2="-34.127">
			<stop  offset="0" style="stop-color:#E6332A"/>
			<stop  offset="1" style="stop-color:#F9B233"/>
		</linearGradient>
		<circle fill="url(#SVGID_144_)" cx="52.74" cy="-34.021" r="0.105"/>
		<linearGradient id="SVGID_145_" gradientUnits="userSpaceOnUse" x1="53.2559" y1="-33.6445" x2="53.2559" y2="-33.8555">
			<stop  offset="0" style="stop-color:#E6332A"/>
			<stop  offset="1" style="stop-color:#F9B233"/>
		</linearGradient>
		<circle fill="url(#SVGID_145_)" cx="53.256" cy="-33.75" r="0.105"/>
		<linearGradient id="SVGID_146_" gradientUnits="userSpaceOnUse" x1="53.7852" y1="-33.75" x2="53.7852" y2="-33.9609">
			<stop  offset="0" style="stop-color:#E6332A"/>
			<stop  offset="1" style="stop-color:#F9B233"/>
		</linearGradient>
		<circle fill="url(#SVGID_146_)" cx="53.785" cy="-33.855" r="0.105"/>
		<linearGradient id="SVGID_147_" gradientUnits="userSpaceOnUse" x1="51.3525" y1="-33.1992" x2="51.3525" y2="-33.4102">
			<stop  offset="0" style="stop-color:#E6332A"/>
			<stop  offset="1" style="stop-color:#F9B233"/>
		</linearGradient>
		<circle fill="url(#SVGID_147_)" cx="51.353" cy="-33.305" r="0.105"/>
		<linearGradient id="SVGID_148_" gradientUnits="userSpaceOnUse" x1="47.5723" y1="-33.7754" x2="47.5723" y2="-33.9355">
			<stop  offset="0" style="stop-color:#E6332A"/>
			<stop  offset="1" style="stop-color:#F9B233"/>
		</linearGradient>
		<circle fill="url(#SVGID_148_)" cx="47.572" cy="-33.855" r="0.08"/>
		<linearGradient id="SVGID_149_" gradientUnits="userSpaceOnUse" x1="48.9531" y1="-33.3555" x2="48.9531" y2="-33.5156">
			<stop  offset="0" style="stop-color:#E6332A"/>
			<stop  offset="1" style="stop-color:#F9B233"/>
		</linearGradient>
		<circle fill="url(#SVGID_149_)" cx="48.953" cy="-33.436" r="0.08"/>
		<linearGradient id="SVGID_150_" gradientUnits="userSpaceOnUse" x1="50.916" y1="-33.4355" x2="50.916" y2="-33.5957">
			<stop  offset="0" style="stop-color:#E6332A"/>
			<stop  offset="1" style="stop-color:#F9B233"/>
		</linearGradient>
		<circle fill="url(#SVGID_150_)" cx="50.916" cy="-33.516" r="0.08"/>
		<linearGradient id="SVGID_151_" gradientUnits="userSpaceOnUse" x1="51.127" y1="-34.6636" x2="51.127" y2="-34.8237">
			<stop  offset="0" style="stop-color:#E6332A"/>
			<stop  offset="1" style="stop-color:#F9B233"/>
		</linearGradient>
		<circle fill="url(#SVGID_151_)" cx="51.127" cy="-34.744" r="0.08"/>
	</g>
	<g clip-path="url(#SVGID_2_)">
		<linearGradient id="SVGID_152_" gradientUnits="userSpaceOnUse" x1="9.3477" y1="-27.0762" x2="9.3477" y2="-35.3262">
			<stop  offset="0" style="stop-color:#E6332A"/>
			<stop  offset="1" style="stop-color:#F9B233"/>
		</linearGradient>
		<path fill="url(#SVGID_152_)" d="M6.564-27.205v-7.998c0.348,0,1.061-0.041,2.139-0.123v2.842c0.398-0.52,0.842-0.779,1.33-0.779
			c1.398,0,2.098,0.969,2.098,2.906c0,2.188-0.832,3.281-2.496,3.281c-0.785,0-1.455-0.369-2.01-1.107l-0.527,0.979H6.564z
			 M9.371-32.402c-0.473,0-0.709,0.684-0.709,2.051c0,1.609,0.23,2.414,0.691,2.414c0.402,0,0.604-0.42,0.604-1.26l0.035-1.447
			l-0.041-0.814C9.889-32.088,9.695-32.402,9.371-32.402z"/>
	</g>
</g>
</svg>
