<?xml version="1.0" encoding="utf-8"?>
<!-- Generator: Adobe Illustrator 16.0.0, SVG Export Plug-In . SVG Version: 6.00 Build 0)  -->
<!DOCTYPE svg PUBLIC "-//W3C//DTD SVG 1.1//EN" "http://www.w3.org/Graphics/SVG/1.1/DTD/svg11.dtd">
<svg version="1.1" id="Calque_1" xmlns="http://www.w3.org/2000/svg" xmlns:xlink="http://www.w3.org/1999/xlink" x="0px" y="0px"
	 width="59.836px" height="13.583px" viewBox="0 0 59.836 13.583" enable-background="new 0 0 59.836 13.583" xml:space="preserve">
<linearGradient id="SVGID_1_" gradientUnits="userSpaceOnUse" x1="3.3223" y1="9.354" x2="3.3223" y2="1.356">
	<stop  offset="0" style="stop-color:#E6332A"/>
	<stop  offset="1" style="stop-color:#F9B233"/>
</linearGradient>
<path fill="url(#SVGID_1_)" d="M0,9.354V1.356h3.557c1.832,0,2.748,0.654,2.748,1.963c0,0.93-0.553,1.525-1.658,1.787
	c1.332,0.266,1.998,0.973,1.998,2.121c0,1.418-0.896,2.127-2.689,2.127H0z M2.32,4.836h0.715c0.66,0,0.99-0.488,0.99-1.465
	c0-0.902-0.35-1.354-1.049-1.354H2.32V4.836z M2.32,8.692h0.662c0.867,0,1.301-0.496,1.301-1.488c0-1.137-0.447-1.705-1.342-1.705
	H2.32V8.692z"/>
<linearGradient id="SVGID_2_" gradientUnits="userSpaceOnUse" x1="9.8496" y1="9.4888" x2="9.8496" y2="3.2837">
	<stop  offset="0" style="stop-color:#E6332A"/>
	<stop  offset="1" style="stop-color:#F9B233"/>
</linearGradient>
<path fill="url(#SVGID_2_)" d="M11.672,7.192l0.861,0.252c-0.09,1.363-0.895,2.045-2.414,2.045c-1.969,0-2.953-0.982-2.953-2.947
	c0-0.953,0.262-1.734,0.785-2.344s1.193-0.914,2.01-0.914c1.707,0,2.561,1.102,2.561,3.305H9.404c0,1.547,0.393,2.32,1.178,2.32
	c0.734,0,1.102-0.438,1.102-1.313C11.684,7.479,11.68,7.344,11.672,7.192z M9.398,5.926h1.277c0-1.375-0.207-2.063-0.621-2.063
	c-0.375,0-0.586,0.51-0.633,1.529L9.398,5.926z"/>
<linearGradient id="SVGID_3_" gradientUnits="userSpaceOnUse" x1="15.8442" y1="9.4888" x2="15.8442" y2="3.2837">
	<stop  offset="0" style="stop-color:#E6332A"/>
	<stop  offset="1" style="stop-color:#F9B233"/>
</linearGradient>
<path fill="url(#SVGID_3_)" d="M17.666,7.192l0.861,0.252c-0.09,1.363-0.895,2.045-2.414,2.045c-1.969,0-2.953-0.982-2.953-2.947
	c0-0.953,0.262-1.734,0.785-2.344s1.193-0.914,2.01-0.914c1.707,0,2.561,1.102,2.561,3.305h-3.117c0,1.547,0.393,2.32,1.178,2.32
	c0.734,0,1.102-0.438,1.102-1.313C17.678,7.479,17.674,7.344,17.666,7.192z M15.393,5.926h1.277c0-1.375-0.207-2.063-0.621-2.063
	c-0.375,0-0.586,0.51-0.633,1.529L15.393,5.926z"/>
<linearGradient id="SVGID_4_" gradientUnits="userSpaceOnUse" x1="21.665" y1="9.354" x2="21.665" y2="3.2954">
	<stop  offset="0" style="stop-color:#E6332A"/>
	<stop  offset="1" style="stop-color:#F9B233"/>
</linearGradient>
<path fill="url(#SVGID_4_)" d="M23.678,5.592h-1.465c0.051-0.23,0.096-0.4,0.135-0.51c0.055-0.16,0.082-0.305,0.082-0.434
	c0-0.25-0.09-0.375-0.27-0.375c-0.137,0-0.268,0.165-0.393,0.495S21.58,5.448,21.58,5.815v3.539h-2.139V3.448l0.416,0.006
	c0.492,0,1.066-0.053,1.723-0.158v0.973c0.348-0.648,0.773-0.973,1.277-0.973c0.688,0,1.031,0.379,1.031,1.137
	c0,0.199-0.033,0.428-0.1,0.686C23.766,5.223,23.729,5.381,23.678,5.592z"/>
<linearGradient id="SVGID_5_" gradientUnits="userSpaceOnUse" x1="27.4512" y1="9.354" x2="27.4512" y2="1.2271">
	<stop  offset="0" style="stop-color:#E6332A"/>
	<stop  offset="1" style="stop-color:#F9B233"/>
</linearGradient>
<path fill="url(#SVGID_5_)" d="M29.818,3.448L28.6,4.977l1.758,4.377h-2.256l-1.025-2.602l-0.393,0.48v2.121h-2.139V1.356
	c0.629,0,1.342-0.043,2.139-0.129v5.004l2.279-2.783H29.818z"/>
<linearGradient id="SVGID_6_" gradientUnits="userSpaceOnUse" x1="33.2871" y1="9.4888" x2="33.2871" y2="3.2837">
	<stop  offset="0" style="stop-color:#E6332A"/>
	<stop  offset="1" style="stop-color:#F9B233"/>
</linearGradient>
<path fill="url(#SVGID_6_)" d="M35.109,7.192l0.861,0.252c-0.09,1.363-0.895,2.045-2.414,2.045c-1.969,0-2.953-0.982-2.953-2.947
	c0-0.953,0.262-1.734,0.785-2.344s1.193-0.914,2.01-0.914c1.707,0,2.561,1.102,2.561,3.305h-3.117c0,1.547,0.393,2.32,1.178,2.32
	c0.734,0,1.102-0.438,1.102-1.313C35.121,7.479,35.117,7.344,35.109,7.192z M32.836,5.926h1.277c0-1.375-0.207-2.063-0.621-2.063
	c-0.375,0-0.586,0.51-0.633,1.529L32.836,5.926z"/>
<linearGradient id="SVGID_7_" gradientUnits="userSpaceOnUse" x1="39.2813" y1="9.4888" x2="39.2813" y2="3.2837">
	<stop  offset="0" style="stop-color:#E6332A"/>
	<stop  offset="1" style="stop-color:#F9B233"/>
</linearGradient>
<path fill="url(#SVGID_7_)" d="M41.104,7.192l0.861,0.252c-0.09,1.363-0.895,2.045-2.414,2.045c-1.969,0-2.953-0.982-2.953-2.947
	c0-0.953,0.262-1.734,0.785-2.344s1.193-0.914,2.01-0.914c1.707,0,2.561,1.102,2.561,3.305h-3.117c0,1.547,0.393,2.32,1.178,2.32
	c0.734,0,1.102-0.438,1.102-1.313C41.115,7.479,41.111,7.344,41.104,7.192z M38.83,5.926h1.277c0-1.375-0.207-2.063-0.621-2.063
	c-0.375,0-0.586,0.51-0.633,1.529L38.83,5.926z"/>
<linearGradient id="SVGID_8_" gradientUnits="userSpaceOnUse" x1="51.791" y1="9.4888" x2="51.791" y2="3.2837">
	<stop  offset="0" style="stop-color:#E6332A"/>
	<stop  offset="1" style="stop-color:#F9B233"/>
</linearGradient>
<path fill="url(#SVGID_8_)" d="M53.613,7.192l0.861,0.252c-0.09,1.363-0.895,2.045-2.414,2.045c-1.969,0-2.953-0.982-2.953-2.947
	c0-0.953,0.262-1.734,0.785-2.344s1.193-0.914,2.01-0.914c1.707,0,2.561,1.102,2.561,3.305h-3.117c0,1.547,0.393,2.32,1.178,2.32
	c0.734,0,1.102-0.438,1.102-1.313C53.625,7.479,53.621,7.344,53.613,7.192z M51.34,5.926h1.277c0-1.375-0.207-2.063-0.621-2.063
	c-0.375,0-0.586,0.51-0.633,1.529L51.34,5.926z"/>
<linearGradient id="SVGID_9_" gradientUnits="userSpaceOnUse" x1="57.6123" y1="9.354" x2="57.6123" y2="3.2954">
	<stop  offset="0" style="stop-color:#E6332A"/>
	<stop  offset="1" style="stop-color:#F9B233"/>
</linearGradient>
<path fill="url(#SVGID_9_)" d="M59.625,5.592H58.16c0.051-0.23,0.096-0.4,0.135-0.51c0.055-0.16,0.082-0.305,0.082-0.434
	c0-0.25-0.09-0.375-0.27-0.375c-0.137,0-0.268,0.165-0.393,0.495s-0.188,0.679-0.188,1.046v3.539h-2.139V3.448l0.416,0.006
	c0.492,0,1.066-0.053,1.723-0.158v0.973c0.348-0.648,0.773-0.973,1.277-0.973c0.688,0,1.031,0.379,1.031,1.137
	c0,0.199-0.033,0.428-0.1,0.686C59.713,5.223,59.676,5.381,59.625,5.592z"/>
<linearGradient id="SVGID_10_" gradientUnits="userSpaceOnUse" x1="44.0996" y1="3.9634" x2="44.0996" y2="-0.0293">
	<stop  offset="0" style="stop-color:#E6332A"/>
	<stop  offset="1" style="stop-color:#F9B233"/>
</linearGradient>
<path fill="#FFFFFF" stroke="url(#SVGID_10_)" stroke-width="0.3" stroke-miterlimit="10" d="M48.814,3.714V3.421l0.146-0.146
	l0.146-0.932c-0.164-0.652-0.639-1.094-1.424-1.324l-0.586,0.053l-0.047-0.053l-0.439,0.146l-0.152-0.293l-0.633-0.539L45.141,0.14
	l-0.932,0.047L44.162,0.14L43.67,0.286l-0.047,0.1l-0.299-0.1l-0.047,0.047l-0.146-0.094c-0.426-0.133-0.785-0.133-1.078,0
	l-0.047-0.053l-0.492,0.246l-0.439,0.539l-0.539,0.1l-0.047-0.053c-0.098-0.031-0.375,0.117-0.832,0.445L39.41,1.757l-0.293,0.686
	l0.047,0.047c0,0,0.101,0.108,0.253,0.108c1.142,0,1.972,0.403,2.487,1.211l0.366,0.005"/>
<linearGradient id="SVGID_11_" gradientUnits="userSpaceOnUse" x1="44.5723" y1="13.5884" x2="44.5723" y2="3.6636">
	<stop  offset="0" style="stop-color:#E6332A"/>
	<stop  offset="1" style="stop-color:#F9B233"/>
</linearGradient>
<path fill="none" stroke="url(#SVGID_11_)" stroke-width="0.3" stroke-miterlimit="10" d="M42.271,3.813c0,0,3.839,0,6.361,0
	c-0.081,5.94-4.394,6.671-4.394,6.671v2.303h2.766c0,0-0.569,0.651-2.929,0.651c-2.36,0-3.255-0.651-3.255-0.651h2.93v-1.464"/>
<linearGradient id="SVGID_12_" gradientUnits="userSpaceOnUse" x1="46.4346" y1="4.6958" x2="46.4346" y2="4.396">
	<stop  offset="0" style="stop-color:#E6332A"/>
	<stop  offset="1" style="stop-color:#F9B233"/>
</linearGradient>
<line fill="none" stroke="url(#SVGID_12_)" stroke-width="0.3" stroke-miterlimit="10" x1="44.4" y1="4.546" x2="48.469" y2="4.546"/>
<linearGradient id="SVGID_13_" gradientUnits="userSpaceOnUse" x1="46.0957" y1="7.5952" x2="47.6709" y2="7.5952">
	<stop  offset="0" style="stop-color:#E6332A"/>
	<stop  offset="1" style="stop-color:#F9B233"/>
</linearGradient>
<path fill="none" stroke="url(#SVGID_13_)" stroke-width="0.1" stroke-miterlimit="10" d="M47.623,6.325
	C47.288,7.5,46.717,8.301,46.13,8.843"/>
<ellipse fill="#82368C" cx="47.107" cy="2.396" rx="0" ry="0.035"/>
<rect x="45.389" y="1.977" fill="#82368C" width="0" height="0"/>
<g>
	<linearGradient id="SVGID_14_" gradientUnits="userSpaceOnUse" x1="42.4785" y1="1.6777" x2="42.4785" y2="1.5869">
		<stop  offset="0" style="stop-color:#E6332A"/>
		<stop  offset="1" style="stop-color:#F9B233"/>
	</linearGradient>
	<circle fill="url(#SVGID_14_)" cx="42.479" cy="1.632" r="0.045"/>
	<linearGradient id="SVGID_15_" gradientUnits="userSpaceOnUse" x1="41.29" y1="2.582" x2="41.29" y2="2.4912">
		<stop  offset="0" style="stop-color:#E6332A"/>
		<stop  offset="1" style="stop-color:#F9B233"/>
	</linearGradient>
	<circle fill="url(#SVGID_15_)" cx="41.29" cy="2.537" r="0.046"/>
	<linearGradient id="SVGID_16_" gradientUnits="userSpaceOnUse" x1="42.0352" y1="3.3188" x2="42.0352" y2="3.1777">
		<stop  offset="0" style="stop-color:#E6332A"/>
		<stop  offset="1" style="stop-color:#F9B233"/>
	</linearGradient>
	<circle fill="url(#SVGID_16_)" cx="42.035" cy="3.249" r="0.07"/>
	<linearGradient id="SVGID_17_" gradientUnits="userSpaceOnUse" x1="42.4336" y1="3.2485" x2="42.4336" y2="3.1074">
		<stop  offset="0" style="stop-color:#E6332A"/>
		<stop  offset="1" style="stop-color:#F9B233"/>
	</linearGradient>
	<circle fill="url(#SVGID_17_)" cx="42.433" cy="3.178" r="0.071"/>
	<linearGradient id="SVGID_18_" gradientUnits="userSpaceOnUse" x1="42.8047" y1="2.6372" x2="42.8047" y2="2.4961">
		<stop  offset="0" style="stop-color:#E6332A"/>
		<stop  offset="1" style="stop-color:#F9B233"/>
	</linearGradient>
	<circle fill="url(#SVGID_18_)" cx="42.805" cy="2.567" r="0.07"/>
	<linearGradient id="SVGID_19_" gradientUnits="userSpaceOnUse" x1="42.875" y1="3.1196" x2="42.875" y2="2.9785">
		<stop  offset="0" style="stop-color:#E6332A"/>
		<stop  offset="1" style="stop-color:#F9B233"/>
	</linearGradient>
	<circle fill="url(#SVGID_19_)" cx="42.875" cy="3.049" r="0.07"/>
	<linearGradient id="SVGID_20_" gradientUnits="userSpaceOnUse" x1="40.3828" y1="1.854" x2="40.3828" y2="1.7129">
		<stop  offset="0" style="stop-color:#E6332A"/>
		<stop  offset="1" style="stop-color:#F9B233"/>
	</linearGradient>
	<circle fill="url(#SVGID_20_)" cx="40.383" cy="1.784" r="0.071"/>
	<linearGradient id="SVGID_21_" gradientUnits="userSpaceOnUse" x1="43.9707" y1="3.4492" x2="43.9707" y2="3.3286">
		<stop  offset="0" style="stop-color:#E6332A"/>
		<stop  offset="1" style="stop-color:#F9B233"/>
	</linearGradient>
	<circle fill="url(#SVGID_21_)" cx="43.971" cy="3.389" r="0.061"/>
	<linearGradient id="SVGID_22_" gradientUnits="userSpaceOnUse" x1="42.3613" y1="2.6978" x2="42.3613" y2="2.5771">
		<stop  offset="0" style="stop-color:#E6332A"/>
		<stop  offset="1" style="stop-color:#F9B233"/>
	</linearGradient>
	<circle fill="url(#SVGID_22_)" cx="42.362" cy="2.637" r="0.06"/>
	<linearGradient id="SVGID_23_" gradientUnits="userSpaceOnUse" x1="44.4004" y1="3.0039" x2="44.4004" y2="2.8833">
		<stop  offset="0" style="stop-color:#E6332A"/>
		<stop  offset="1" style="stop-color:#F9B233"/>
	</linearGradient>
	<circle fill="url(#SVGID_23_)" cx="44.4" cy="2.943" r="0.061"/>
	<linearGradient id="SVGID_24_" gradientUnits="userSpaceOnUse" x1="46.375" y1="1.4722" x2="46.375" y2="1.3516">
		<stop  offset="0" style="stop-color:#E6332A"/>
		<stop  offset="1" style="stop-color:#F9B233"/>
	</linearGradient>
	<circle fill="url(#SVGID_24_)" cx="46.375" cy="1.412" r="0.06"/>
	<linearGradient id="SVGID_25_" gradientUnits="userSpaceOnUse" x1="45.9307" y1="1.7832" x2="45.9307" y2="1.5723">
		<stop  offset="0" style="stop-color:#E6332A"/>
		<stop  offset="1" style="stop-color:#F9B233"/>
	</linearGradient>
	<circle fill="url(#SVGID_25_)" cx="45.931" cy="1.678" r="0.105"/>
	<linearGradient id="SVGID_26_" gradientUnits="userSpaceOnUse" x1="41.3955" y1="1.457" x2="41.3955" y2="1.2461">
		<stop  offset="0" style="stop-color:#E6332A"/>
		<stop  offset="1" style="stop-color:#F9B233"/>
	</linearGradient>
	<circle fill="url(#SVGID_26_)" cx="41.396" cy="1.352" r="0.105"/>
	<linearGradient id="SVGID_27_" gradientUnits="userSpaceOnUse" x1="41.8594" y1="2.0557" x2="41.8594" y2="1.8447">
		<stop  offset="0" style="stop-color:#E6332A"/>
		<stop  offset="1" style="stop-color:#F9B233"/>
	</linearGradient>
	<circle fill="url(#SVGID_27_)" cx="41.859" cy="1.95" r="0.105"/>
	<linearGradient id="SVGID_28_" gradientUnits="userSpaceOnUse" x1="48.2578" y1="2.1875" x2="48.2578" y2="1.9766">
		<stop  offset="0" style="stop-color:#E6332A"/>
		<stop  offset="1" style="stop-color:#F9B233"/>
	</linearGradient>
	<circle fill="url(#SVGID_28_)" cx="48.258" cy="2.082" r="0.105"/>
	<linearGradient id="SVGID_29_" gradientUnits="userSpaceOnUse" x1="47.9395" y1="2.5366" x2="47.9395" y2="2.3257">
		<stop  offset="0" style="stop-color:#E6332A"/>
		<stop  offset="1" style="stop-color:#F9B233"/>
	</linearGradient>
	<circle fill="url(#SVGID_29_)" cx="47.939" cy="2.431" r="0.105"/>
	<linearGradient id="SVGID_30_" gradientUnits="userSpaceOnUse" x1="47.2129" y1="2.7778" x2="47.2129" y2="2.5669">
		<stop  offset="0" style="stop-color:#E6332A"/>
		<stop  offset="1" style="stop-color:#F9B233"/>
	</linearGradient>
	<circle fill="url(#SVGID_30_)" cx="47.213" cy="2.672" r="0.105"/>
	<linearGradient id="SVGID_31_" gradientUnits="userSpaceOnUse" x1="47.7285" y1="3.0493" x2="47.7285" y2="2.8384">
		<stop  offset="0" style="stop-color:#E6332A"/>
		<stop  offset="1" style="stop-color:#F9B233"/>
	</linearGradient>
	<circle fill="url(#SVGID_31_)" cx="47.729" cy="2.944" r="0.105"/>
	<linearGradient id="SVGID_32_" gradientUnits="userSpaceOnUse" x1="48.2578" y1="2.9438" x2="48.2578" y2="2.7329">
		<stop  offset="0" style="stop-color:#E6332A"/>
		<stop  offset="1" style="stop-color:#F9B233"/>
	</linearGradient>
	<circle fill="url(#SVGID_32_)" cx="48.258" cy="2.838" r="0.105"/>
	<linearGradient id="SVGID_33_" gradientUnits="userSpaceOnUse" x1="45.8252" y1="3.4946" x2="45.8252" y2="3.2837">
		<stop  offset="0" style="stop-color:#E6332A"/>
		<stop  offset="1" style="stop-color:#F9B233"/>
	</linearGradient>
	<circle fill="url(#SVGID_33_)" cx="45.825" cy="3.389" r="0.105"/>
	<linearGradient id="SVGID_34_" gradientUnits="userSpaceOnUse" x1="42.0449" y1="2.9185" x2="42.0449" y2="2.7583">
		<stop  offset="0" style="stop-color:#E6332A"/>
		<stop  offset="1" style="stop-color:#F9B233"/>
	</linearGradient>
	<circle fill="url(#SVGID_34_)" cx="42.045" cy="2.838" r="0.08"/>
	<linearGradient id="SVGID_35_" gradientUnits="userSpaceOnUse" x1="43.4258" y1="3.3384" x2="43.4258" y2="3.1782">
		<stop  offset="0" style="stop-color:#E6332A"/>
		<stop  offset="1" style="stop-color:#F9B233"/>
	</linearGradient>
	<circle fill="url(#SVGID_35_)" cx="43.426" cy="3.258" r="0.08"/>
	<linearGradient id="SVGID_36_" gradientUnits="userSpaceOnUse" x1="45.3887" y1="3.2583" x2="45.3887" y2="3.0981">
		<stop  offset="0" style="stop-color:#E6332A"/>
		<stop  offset="1" style="stop-color:#F9B233"/>
	</linearGradient>
	<circle fill="url(#SVGID_36_)" cx="45.389" cy="3.178" r="0.08"/>
	<linearGradient id="SVGID_37_" gradientUnits="userSpaceOnUse" x1="45.5996" y1="2.0303" x2="45.5996" y2="1.8701">
		<stop  offset="0" style="stop-color:#E6332A"/>
		<stop  offset="1" style="stop-color:#F9B233"/>
	</linearGradient>
	<circle fill="url(#SVGID_37_)" cx="45.6" cy="1.95" r="0.08"/>
</g>
</svg>
